<?xml version="1.0" encoding="UTF-8" standalone="no"?>
<!DOCTYPE svg PUBLIC "-//W3C//DTD SVG 1.1//EN"
 "http://www.w3.org/Graphics/SVG/1.1/DTD/svg11.dtd">
<!-- Generated by graphviz version 2.40.1 (20161225.0304)
 -->
<!-- Title: G Pages: 1 -->
<svg width="405pt" height="1240pt"
 viewBox="0.00 0.00 404.57 1240.00" xmlns="http://www.w3.org/2000/svg" xmlns:xlink="http://www.w3.org/1999/xlink">
<g id="graph0" class="graph" transform="scale(1 1) rotate(0) translate(4 1236)">
<title>G</title>
<polygon fill="#ffffff" stroke="transparent" points="-4,4 -4,-1236 400.5731,-1236 400.5731,4 -4,4"/>
<g id="clust1" class="cluster">
<title>cluster_Global</title>
<path fill="none" stroke="#c0c0c0" d="M35.7731,-44C35.7731,-44 376.5731,-44 376.5731,-44 382.5731,-44 388.5731,-50 388.5731,-56 388.5731,-56 388.5731,-1212 388.5731,-1212 388.5731,-1218 382.5731,-1224 376.5731,-1224 376.5731,-1224 35.7731,-1224 35.7731,-1224 29.7731,-1224 23.7731,-1218 23.7731,-1212 23.7731,-1212 23.7731,-56 23.7731,-56 23.7731,-50 29.7731,-44 35.7731,-44"/>
<text text-anchor="middle" x="206.1731" y="-1211.2" font-family="Times,serif" font-size="11.00" fill="#c0c0c0">Global</text>
</g>
<g id="clust2" class="cluster">
<title>cluster_\JustGivingApi</title>
<path fill="none" stroke="#c0c0c0" d="M43.7731,-52C43.7731,-52 368.5731,-52 368.5731,-52 374.5731,-52 380.5731,-58 380.5731,-64 380.5731,-64 380.5731,-1185 380.5731,-1185 380.5731,-1191 374.5731,-1197 368.5731,-1197 368.5731,-1197 43.7731,-1197 43.7731,-1197 37.7731,-1197 31.7731,-1191 31.7731,-1185 31.7731,-1185 31.7731,-64 31.7731,-64 31.7731,-58 37.7731,-52 43.7731,-52"/>
<text text-anchor="middle" x="206.1731" y="-1184.2" font-family="Times,serif" font-size="11.00" fill="#c0c0c0">JustGivingApi</text>
</g>
<g id="clust3" class="cluster">
<title>cluster_\JustGivingApi\Models</title>
<path fill="none" stroke="#c0c0c0" d="M55.8769,-775C55.8769,-775 353.972,-775 353.972,-775 359.972,-775 365.972,-781 365.972,-787 365.972,-787 365.972,-1158 365.972,-1158 365.972,-1164 359.972,-1170 353.972,-1170 353.972,-1170 55.8769,-1170 55.8769,-1170 49.8769,-1170 43.8769,-1164 43.8769,-1158 43.8769,-1158 43.8769,-787 43.8769,-787 43.8769,-781 49.8769,-775 55.8769,-775"/>
<text text-anchor="middle" x="204.9244" y="-1157.2" font-family="Times,serif" font-size="11.00" fill="#c0c0c0">Models</text>
</g>
<g id="clust4" class="cluster">
<title>cluster_\JustGivingApi\Exceptions</title>
<path fill="none" stroke="#c0c0c0" d="M253.5569,-185C253.5569,-185 340.7698,-185 340.7698,-185 346.7698,-185 352.7698,-191 352.7698,-197 352.7698,-197 352.7698,-244 352.7698,-244 352.7698,-250 346.7698,-256 340.7698,-256 340.7698,-256 253.5569,-256 253.5569,-256 247.5569,-256 241.5569,-250 241.5569,-244 241.5569,-244 241.5569,-197 241.5569,-197 241.5569,-191 247.5569,-185 253.5569,-185"/>
<text text-anchor="middle" x="297.1634" y="-243.2" font-family="Times,serif" font-size="11.00" fill="#c0c0c0">Exceptions</text>
</g>
<g id="clust5" class="cluster">
<title>cluster_\JustGivingApi\Services</title>
<path fill="none" stroke="#c0c0c0" d="M51.7731,-264C51.7731,-264 360.5731,-264 360.5731,-264 366.5731,-264 372.5731,-270 372.5731,-276 372.5731,-276 372.5731,-755 372.5731,-755 372.5731,-761 366.5731,-767 360.5731,-767 360.5731,-767 51.7731,-767 51.7731,-767 45.7731,-767 39.7731,-761 39.7731,-755 39.7731,-755 39.7731,-276 39.7731,-276 39.7731,-270 45.7731,-264 51.7731,-264"/>
<text text-anchor="middle" x="206.1731" y="-754.2" font-family="Times,serif" font-size="11.00" fill="#c0c0c0">Services</text>
</g>
<g id="clust6" class="cluster">
<title>cluster_\JustGivingApi\Transport</title>
<path fill="none" stroke="#c0c0c0" d="M263.4586,-106C263.4586,-106 330.8682,-106 330.8682,-106 336.8682,-106 342.8682,-112 342.8682,-118 342.8682,-118 342.8682,-165 342.8682,-165 342.8682,-171 336.8682,-177 330.8682,-177 330.8682,-177 263.4586,-177 263.4586,-177 257.4586,-177 251.4586,-171 251.4586,-165 251.4586,-165 251.4586,-118 251.4586,-118 251.4586,-112 257.4586,-106 263.4586,-106"/>
<text text-anchor="middle" x="297.1634" y="-164.2" font-family="Times,serif" font-size="11.00" fill="#c0c0c0">Transport</text>
</g>
<!-- \\JustGivingApi\\Models\\ConsumerDonation -->
<g id="node1" class="node">
<title>\\JustGivingApi\\Models\\ConsumerDonation</title>
<polygon fill="none" stroke="#000000" points="357.7812,-1143 236.5456,-1143 236.5456,-1107 357.7812,-1107 357.7812,-1143"/>
<text text-anchor="middle" x="297.1634" y="-1121.7" font-family="Courier,monospace" font-size="11.00" fill="#000000">ConsumerDonation</text>
</g>
<!-- \\JustGivingApi\\Models\\Model -->
<g id="node4" class="node">
<title>\\JustGivingApi\\Models\\Model</title>
<polygon fill="none" stroke="#000000" points="105.8769,-954 51.8769,-954 51.8769,-918 105.8769,-918 105.8769,-954"/>
<text text-anchor="middle" x="78.8769" y="-932.7" font-family="Courier,monospace" font-size="11.00" fill="#000000">Model</text>
</g>
<!-- \\JustGivingApi\\Models\\ConsumerDonation&#45;&gt;\\JustGivingApi\\Models\\Model -->
<g id="edge1" class="edge">
<title>\\JustGivingApi\\Models\\ConsumerDonation&#45;&gt;\\JustGivingApi\\Models\\Model</title>
<path fill="none" stroke="#000000" d="M245.157,-1106.9215C239.7776,-1104.2514 234.5369,-1101.279 229.7537,-1098 173.9371,-1059.7358 123.5262,-997.4699 97.4903,-962.3212"/>
<polygon fill="none" stroke="#000000" points="100.1348,-960.0079 91.4078,-954.0005 94.4837,-964.139 100.1348,-960.0079"/>
</g>
<!-- \\JustGivingApi\\Models\\Query -->
<g id="node2" class="node">
<title>\\JustGivingApi\\Models\\Query</title>
<polygon fill="none" stroke="#000000" points="324.1634,-1089 270.1634,-1089 270.1634,-1053 324.1634,-1053 324.1634,-1089"/>
<text text-anchor="middle" x="297.1634" y="-1067.7" font-family="Courier,monospace" font-size="11.00" fill="#000000">Query</text>
</g>
<!-- \\JustGivingApi\\Models\\Campaign -->
<g id="node3" class="node">
<title>\\JustGivingApi\\Models\\Campaign</title>
<polygon fill="none" stroke="#000000" points="331.4722,-1035 262.8545,-1035 262.8545,-999 331.4722,-999 331.4722,-1035"/>
<text text-anchor="middle" x="297.1634" y="-1013.7" font-family="Courier,monospace" font-size="11.00" fill="#000000">Campaign</text>
</g>
<!-- \\JustGivingApi\\Models\\Campaign&#45;&gt;\\JustGivingApi\\Models\\Model -->
<g id="edge6" class="edge">
<title>\\JustGivingApi\\Models\\Campaign&#45;&gt;\\JustGivingApi\\Models\\Model</title>
<path fill="none" stroke="#000000" d="M262.5752,-1004.1653C222.4828,-989.2881 156.6801,-964.8706 115.6716,-949.6535"/>
<polygon fill="none" stroke="#000000" points="116.6549,-946.2852 106.0619,-946.0876 114.2196,-952.848 116.6549,-946.2852"/>
</g>
<!-- \\JustGivingApi\\Models\\Team -->
<g id="node5" class="node">
<title>\\JustGivingApi\\Models\\Team</title>
<polygon fill="none" stroke="#000000" points="324.1634,-981 270.1634,-981 270.1634,-945 324.1634,-945 324.1634,-981"/>
<text text-anchor="middle" x="297.1634" y="-959.7" font-family="Courier,monospace" font-size="11.00" fill="#000000">Team</text>
</g>
<!-- \\JustGivingApi\\Models\\Team&#45;&gt;\\JustGivingApi\\Models\\Model -->
<g id="edge11" class="edge">
<title>\\JustGivingApi\\Models\\Team&#45;&gt;\\JustGivingApi\\Models\\Model</title>
<path fill="none" stroke="#000000" d="M269.9586,-959.635C231.1279,-954.832 159.6881,-945.9956 116.0173,-940.5939"/>
<polygon fill="none" stroke="#000000" points="116.4348,-937.119 106.0808,-939.3649 115.5755,-944.066 116.4348,-937.119"/>
</g>
<!-- \\JustGivingApi\\Models\\Account -->
<g id="node6" class="node">
<title>\\JustGivingApi\\Models\\Account</title>
<polygon fill="none" stroke="#000000" points="328.3713,-927 265.9555,-927 265.9555,-891 328.3713,-891 328.3713,-927"/>
<text text-anchor="middle" x="297.1634" y="-905.7" font-family="Courier,monospace" font-size="11.00" fill="#000000">Account</text>
</g>
<!-- \\JustGivingApi\\Models\\Account&#45;&gt;\\JustGivingApi\\Models\\Model -->
<g id="edge13" class="edge">
<title>\\JustGivingApi\\Models\\Account&#45;&gt;\\JustGivingApi\\Models\\Model</title>
<path fill="none" stroke="#000000" d="M265.8883,-912.8684C226.3298,-917.7615 158.2947,-926.1768 116.102,-931.3956"/>
<polygon fill="none" stroke="#000000" points="115.4596,-927.9483 105.9649,-932.6495 116.3189,-934.8954 115.4596,-927.9483"/>
</g>
<!-- \\JustGivingApi\\Models\\FundraisingPage -->
<g id="node7" class="node">
<title>\\JustGivingApi\\Models\\FundraisingPage</title>
<polygon fill="none" stroke="#000000" points="354.6795,-873 239.6473,-873 239.6473,-837 354.6795,-837 354.6795,-873"/>
<text text-anchor="middle" x="297.1634" y="-851.7" font-family="Courier,monospace" font-size="11.00" fill="#000000">FundraisingPage</text>
</g>
<!-- \\JustGivingApi\\Models\\FundraisingPage&#45;&gt;\\JustGivingApi\\Models\\Model -->
<g id="edge15" class="edge">
<title>\\JustGivingApi\\Models\\FundraisingPage&#45;&gt;\\JustGivingApi\\Models\\Model</title>
<path fill="none" stroke="#000000" d="M248.4473,-873.0772C208.3632,-887.9512 152.4006,-908.7174 115.9069,-922.2592"/>
<polygon fill="none" stroke="#000000" points="114.3172,-919.1158 106.1595,-925.8762 116.7524,-925.6786 114.3172,-919.1158"/>
</g>
<!-- \\JustGivingApi\\Models\\Event -->
<g id="node8" class="node">
<title>\\JustGivingApi\\Models\\Event</title>
<polygon fill="none" stroke="#000000" points="324.1634,-819 270.1634,-819 270.1634,-783 324.1634,-783 324.1634,-819"/>
<text text-anchor="middle" x="297.1634" y="-797.7" font-family="Courier,monospace" font-size="11.00" fill="#000000">Event</text>
</g>
<!-- \\JustGivingApi\\Models\\Event&#45;&gt;\\JustGivingApi\\Models\\Model -->
<g id="edge16" class="edge">
<title>\\JustGivingApi\\Models\\Event&#45;&gt;\\JustGivingApi\\Models\\Model</title>
<path fill="none" stroke="#000000" d="M269.9135,-810.211C257.3636,-814.8792 242.4691,-821.0351 229.7537,-828 185.0774,-852.4715 138.026,-887.9192 108.5805,-911.4456"/>
<polygon fill="none" stroke="#000000" points="106.351,-908.7472 100.7589,-917.7461 110.7422,-914.1986 106.351,-908.7472"/>
</g>
<!-- \\JustGivingApi\\Exceptions\\ApiException -->
<g id="node9" class="node">
<title>\\JustGivingApi\\Exceptions\\ApiException</title>
<polygon fill="none" stroke="#000000" points="344.8765,-229 249.4503,-229 249.4503,-193 344.8765,-193 344.8765,-229"/>
<text text-anchor="middle" x="297.1634" y="-207.7" font-family="Courier,monospace" font-size="11.00" fill="#000000">ApiException</text>
</g>
<!-- \\RuntimeException -->
<g id="node22" class="node">
<title>\\RuntimeException</title>
<ellipse fill="none" stroke="#000000" cx="78.8769" cy="-18" rx="78.7539" ry="18"/>
<text text-anchor="middle" x="78.8769" y="-13.8" font-family="Times,serif" font-size="14.00" fill="#c0c0c0">\RuntimeException</text>
</g>
<!-- \\JustGivingApi\\Exceptions\\ApiException&#45;&gt;\\RuntimeException -->
<g id="edge2" class="edge">
<title>\\JustGivingApi\\Exceptions\\ApiException&#45;&gt;\\RuntimeException</title>
<path fill="none" stroke="#000000" d="M249.7618,-192.8621C242.7919,-189.3649 235.8988,-185.3997 229.7537,-181 174.5476,-141.4742 123.9074,-79.2091 97.6688,-44.1838"/>
<polygon fill="none" stroke="#000000" points="100.2979,-41.8527 91.5358,-35.8964 94.6711,-46.0168 100.2979,-41.8527"/>
</g>
<!-- \\JustGivingApi\\Services\\EventsService -->
<g id="node10" class="node">
<title>\\JustGivingApi\\Services\\EventsService</title>
<polygon fill="none" stroke="#000000" points="347.9775,-740 246.3493,-740 246.3493,-704 347.9775,-704 347.9775,-740"/>
<text text-anchor="middle" x="297.1634" y="-718.7" font-family="Courier,monospace" font-size="11.00" fill="#000000">EventsService</text>
</g>
<!-- \\JustGivingApi\\Services\\Service -->
<g id="node13" class="node">
<title>\\JustGivingApi\\Services\\Service</title>
<polygon fill="none" stroke="#000000" points="110.0847,-524 47.669,-524 47.669,-488 110.0847,-488 110.0847,-524"/>
<text text-anchor="middle" x="78.8769" y="-502.7" font-family="Courier,monospace" font-size="11.00" fill="#000000">Service</text>
</g>
<!-- \\JustGivingApi\\Services\\EventsService&#45;&gt;\\JustGivingApi\\Services\\Service -->
<g id="edge3" class="edge">
<title>\\JustGivingApi\\Services\\EventsService&#45;&gt;\\JustGivingApi\\Services\\Service</title>
<path fill="none" stroke="#000000" d="M246.2923,-704.9907C240.468,-702.0804 234.8133,-698.7595 229.7537,-695 168.4739,-649.4665 118.1272,-573.2631 94.0991,-532.9318"/>
<polygon fill="none" stroke="#000000" points="97.05,-531.045 88.9704,-524.1915 91.0126,-534.5876 97.05,-531.045"/>
</g>
<!-- \\JustGivingApi\\Services\\FundraisingService -->
<g id="node11" class="node">
<title>\\JustGivingApi\\Services\\FundraisingService</title>
<polygon fill="none" stroke="#000000" points="364.4828,-686 229.8439,-686 229.8439,-650 364.4828,-650 364.4828,-686"/>
<text text-anchor="middle" x="297.1634" y="-664.7" font-family="Courier,monospace" font-size="11.00" fill="#000000">FundraisingService</text>
</g>
<!-- \\JustGivingApi\\Services\\FundraisingService&#45;&gt;\\JustGivingApi\\Services\\Service -->
<g id="edge4" class="edge">
<title>\\JustGivingApi\\Services\\FundraisingService&#45;&gt;\\JustGivingApi\\Services\\Service</title>
<path fill="none" stroke="#000000" d="M246.5125,-649.9783C240.7115,-647.2571 235.0024,-644.2575 229.7537,-641 179.5844,-609.864 130.2896,-561.4596 102.3246,-531.8573"/>
<polygon fill="none" stroke="#000000" points="104.7383,-529.314 95.3532,-524.3975 99.6239,-534.0935 104.7383,-529.314"/>
</g>
<!-- \\JustGivingApi\\Services\\TeamService -->
<g id="node12" class="node">
<title>\\JustGivingApi\\Services\\TeamService</title>
<polygon fill="none" stroke="#000000" points="341.2761,-632 253.0507,-632 253.0507,-596 341.2761,-596 341.2761,-632"/>
<text text-anchor="middle" x="297.1634" y="-610.7" font-family="Courier,monospace" font-size="11.00" fill="#000000">TeamService</text>
</g>
<!-- \\JustGivingApi\\Services\\TeamService&#45;&gt;\\JustGivingApi\\Services\\Service -->
<g id="edge5" class="edge">
<title>\\JustGivingApi\\Services\\TeamService&#45;&gt;\\JustGivingApi\\Services\\Service</title>
<path fill="none" stroke="#000000" d="M252.9838,-597.1276C245.179,-593.9139 237.1787,-590.4669 229.7537,-587 191.4257,-569.1039 149.0964,-546.0799 119.0531,-529.156"/>
<polygon fill="none" stroke="#000000" points="120.5684,-525.992 110.1417,-524.1121 117.1203,-532.0839 120.5684,-525.992"/>
</g>
<!-- \\JustGivingApi\\Services\\AccountsService -->
<g id="node14" class="node">
<title>\\JustGivingApi\\Services\\AccountsService</title>
<polygon fill="none" stroke="#000000" points="354.6795,-578 239.6473,-578 239.6473,-542 354.6795,-542 354.6795,-578"/>
<text text-anchor="middle" x="297.1634" y="-556.7" font-family="Courier,monospace" font-size="11.00" fill="#000000">AccountsService</text>
</g>
<!-- \\JustGivingApi\\Services\\AccountsService&#45;&gt;\\JustGivingApi\\Services\\Service -->
<g id="edge7" class="edge">
<title>\\JustGivingApi\\Services\\AccountsService&#45;&gt;\\JustGivingApi\\Services\\Service</title>
<path fill="none" stroke="#000000" d="M239.5256,-545.7415C201.9793,-536.4532 153.8814,-524.5547 120.139,-516.2075"/>
<polygon fill="none" stroke="#000000" points="120.7035,-512.7417 110.1556,-513.7378 119.0225,-519.5369 120.7035,-512.7417"/>
</g>
<!-- \\JustGivingApi\\Services\\OneSearchService -->
<g id="node15" class="node">
<title>\\JustGivingApi\\Services\\OneSearchService</title>
<polygon fill="none" stroke="#000000" points="357.7812,-524 236.5456,-524 236.5456,-488 357.7812,-488 357.7812,-524"/>
<text text-anchor="middle" x="297.1634" y="-502.7" font-family="Courier,monospace" font-size="11.00" fill="#000000">OneSearchService</text>
</g>
<!-- \\JustGivingApi\\Services\\OneSearchService&#45;&gt;\\JustGivingApi\\Services\\Service -->
<g id="edge8" class="edge">
<title>\\JustGivingApi\\Services\\OneSearchService&#45;&gt;\\JustGivingApi\\Services\\Service</title>
<path fill="none" stroke="#000000" d="M236.3584,-506C199.3632,-506 153.0825,-506 120.2905,-506"/>
<polygon fill="none" stroke="#000000" points="120.1466,-502.5001 110.1466,-506 120.1465,-509.5001 120.1466,-502.5001"/>
</g>
<!-- \\JustGivingApi\\Services\\CurrencyService -->
<g id="node16" class="node">
<title>\\JustGivingApi\\Services\\CurrencyService</title>
<polygon fill="none" stroke="#000000" points="354.6795,-470 239.6473,-470 239.6473,-434 354.6795,-434 354.6795,-470"/>
<text text-anchor="middle" x="297.1634" y="-448.7" font-family="Courier,monospace" font-size="11.00" fill="#000000">CurrencyService</text>
</g>
<!-- \\JustGivingApi\\Services\\CurrencyService&#45;&gt;\\JustGivingApi\\Services\\Service -->
<g id="edge9" class="edge">
<title>\\JustGivingApi\\Services\\CurrencyService&#45;&gt;\\JustGivingApi\\Services\\Service</title>
<path fill="none" stroke="#000000" d="M239.5256,-466.2585C201.9793,-475.5468 153.8814,-487.4453 120.139,-495.7925"/>
<polygon fill="none" stroke="#000000" points="119.0225,-492.4631 110.1556,-498.2622 120.7035,-499.2583 119.0225,-492.4631"/>
</g>
<!-- \\JustGivingApi\\Services\\CountriesService -->
<g id="node17" class="node">
<title>\\JustGivingApi\\Services\\CountriesService</title>
<polygon fill="none" stroke="#000000" points="357.7812,-416 236.5456,-416 236.5456,-380 357.7812,-380 357.7812,-416"/>
<text text-anchor="middle" x="297.1634" y="-394.7" font-family="Courier,monospace" font-size="11.00" fill="#000000">CountriesService</text>
</g>
<!-- \\JustGivingApi\\Services\\CountriesService&#45;&gt;\\JustGivingApi\\Services\\Service -->
<g id="edge10" class="edge">
<title>\\JustGivingApi\\Services\\CountriesService&#45;&gt;\\JustGivingApi\\Services\\Service</title>
<path fill="none" stroke="#000000" d="M250.0946,-416.0692C243.2184,-418.9349 236.2649,-421.9598 229.7537,-425 191.4257,-442.8961 149.0964,-465.9201 119.0531,-482.844"/>
<polygon fill="none" stroke="#000000" points="117.1203,-479.9161 110.1417,-487.8879 120.5684,-486.008 117.1203,-479.9161"/>
</g>
<!-- \\JustGivingApi\\Services\\OAuth2Service -->
<g id="node18" class="node">
<title>\\JustGivingApi\\Services\\OAuth2Service</title>
<polygon fill="none" stroke="#000000" points="347.9775,-362 246.3493,-362 246.3493,-326 347.9775,-326 347.9775,-362"/>
<text text-anchor="middle" x="297.1634" y="-340.7" font-family="Courier,monospace" font-size="11.00" fill="#000000">OAuth2Service</text>
</g>
<!-- \\JustGivingApi\\Services\\OAuth2Service&#45;&gt;\\JustGivingApi\\Services\\Service -->
<g id="edge12" class="edge">
<title>\\JustGivingApi\\Services\\OAuth2Service&#45;&gt;\\JustGivingApi\\Services\\Service</title>
<path fill="none" stroke="#000000" d="M246.5125,-362.0217C240.7115,-364.7429 235.0024,-367.7425 229.7537,-371 179.5844,-402.136 130.2896,-450.5404 102.3246,-480.1427"/>
<polygon fill="none" stroke="#000000" points="99.6239,-477.9065 95.3532,-487.6025 104.7383,-482.686 99.6239,-477.9065"/>
</g>
<!-- \\JustGivingApi\\Services\\CampaignsService -->
<g id="node19" class="node">
<title>\\JustGivingApi\\Services\\CampaignsService</title>
<polygon fill="none" stroke="#000000" points="357.7812,-308 236.5456,-308 236.5456,-272 357.7812,-272 357.7812,-308"/>
<text text-anchor="middle" x="297.1634" y="-286.7" font-family="Courier,monospace" font-size="11.00" fill="#000000">CampaignsService</text>
</g>
<!-- \\JustGivingApi\\Services\\CampaignsService&#45;&gt;\\JustGivingApi\\Services\\Service -->
<g id="edge14" class="edge">
<title>\\JustGivingApi\\Services\\CampaignsService&#45;&gt;\\JustGivingApi\\Services\\Service</title>
<path fill="none" stroke="#000000" d="M244.2036,-308.0748C239.1195,-310.7229 234.2062,-313.6916 229.7537,-317 168.4739,-362.5335 118.1272,-438.7369 94.0991,-479.0682"/>
<polygon fill="none" stroke="#000000" points="91.0126,-477.4124 88.9704,-487.8085 97.05,-480.955 91.0126,-477.4124"/>
</g>
<!-- \\JustGivingApi\\Transport\\Transport -->
<g id="node20" class="node">
<title>\\JustGivingApi\\Transport\\Transport</title>
<polygon fill="none" stroke="#000000" points="335.0742,-150 259.2526,-150 259.2526,-114 335.0742,-114 335.0742,-150"/>
<text text-anchor="middle" x="297.1634" y="-128.7" font-family="Courier,monospace" font-size="11.00" fill="#000000">Transport</text>
</g>
<!-- \\JustGivingApi\\JustGivingApi -->
<g id="node21" class="node">
<title>\\JustGivingApi\\JustGivingApi</title>
<polygon fill="none" stroke="#000000" points="347.9775,-96 246.3493,-96 246.3493,-60 347.9775,-60 347.9775,-96"/>
<text text-anchor="middle" x="297.1634" y="-74.7" font-family="Courier,monospace" font-size="11.00" fill="#000000">JustGivingApi</text>
</g>
</g>
</svg>
