<?xml version="1.0" encoding="UTF-8" standalone="no"?>
<!DOCTYPE svg PUBLIC "-//W3C//DTD SVG 1.1//EN"
 "http://www.w3.org/Graphics/SVG/1.1/DTD/svg11.dtd">
<!-- Generated by graphviz version 2.40.1 (20161225.0304)
 -->
<!-- Title: G Pages: 1 -->
<svg width="405pt" height="1078pt"
 viewBox="0.00 0.00 404.57 1078.00" xmlns="http://www.w3.org/2000/svg" xmlns:xlink="http://www.w3.org/1999/xlink">
<g id="graph0" class="graph" transform="scale(1 1) rotate(0) translate(4 1074)">
<title>G</title>
<polygon fill="#ffffff" stroke="transparent" points="-4,4 -4,-1074 400.5731,-1074 400.5731,4 -4,4"/>
<g id="clust1" class="cluster">
<title>cluster_Global</title>
<path fill="none" stroke="#c0c0c0" d="M35.7731,-44C35.7731,-44 376.5731,-44 376.5731,-44 382.5731,-44 388.5731,-50 388.5731,-56 388.5731,-56 388.5731,-1050 388.5731,-1050 388.5731,-1056 382.5731,-1062 376.5731,-1062 376.5731,-1062 35.7731,-1062 35.7731,-1062 29.7731,-1062 23.7731,-1056 23.7731,-1050 23.7731,-1050 23.7731,-56 23.7731,-56 23.7731,-50 29.7731,-44 35.7731,-44"/>
<text text-anchor="middle" x="206.1731" y="-1049.2" font-family="Times,serif" font-size="11.00" fill="#c0c0c0">Global</text>
</g>
<g id="clust2" class="cluster">
<title>cluster_\JustGivingApi</title>
<path fill="none" stroke="#c0c0c0" d="M43.7731,-52C43.7731,-52 368.5731,-52 368.5731,-52 374.5731,-52 380.5731,-58 380.5731,-64 380.5731,-64 380.5731,-1023 380.5731,-1023 380.5731,-1029 374.5731,-1035 368.5731,-1035 368.5731,-1035 43.7731,-1035 43.7731,-1035 37.7731,-1035 31.7731,-1029 31.7731,-1023 31.7731,-1023 31.7731,-64 31.7731,-64 31.7731,-58 37.7731,-52 43.7731,-52"/>
<text text-anchor="middle" x="206.1731" y="-1022.2" font-family="Times,serif" font-size="11.00" fill="#c0c0c0">JustGivingApi</text>
</g>
<g id="clust3" class="cluster">
<title>cluster_\JustGivingApi\Exceptions</title>
<path fill="none" stroke="#c0c0c0" d="M253.5569,-185C253.5569,-185 340.7698,-185 340.7698,-185 346.7698,-185 352.7698,-191 352.7698,-197 352.7698,-197 352.7698,-244 352.7698,-244 352.7698,-250 346.7698,-256 340.7698,-256 340.7698,-256 253.5569,-256 253.5569,-256 247.5569,-256 241.5569,-250 241.5569,-244 241.5569,-244 241.5569,-197 241.5569,-197 241.5569,-191 247.5569,-185 253.5569,-185"/>
<text text-anchor="middle" x="297.1634" y="-243.2" font-family="Times,serif" font-size="11.00" fill="#c0c0c0">Exceptions</text>
</g>
<g id="clust4" class="cluster">
<title>cluster_\JustGivingApi\Services</title>
<path fill="none" stroke="#c0c0c0" d="M51.7731,-559C51.7731,-559 360.5731,-559 360.5731,-559 366.5731,-559 372.5731,-565 372.5731,-571 372.5731,-571 372.5731,-996 372.5731,-996 372.5731,-1002 366.5731,-1008 360.5731,-1008 360.5731,-1008 51.7731,-1008 51.7731,-1008 45.7731,-1008 39.7731,-1002 39.7731,-996 39.7731,-996 39.7731,-571 39.7731,-571 39.7731,-565 45.7731,-559 51.7731,-559"/>
<text text-anchor="middle" x="206.1731" y="-995.2" font-family="Times,serif" font-size="11.00" fill="#c0c0c0">Services</text>
</g>
<g id="clust5" class="cluster">
<title>cluster_\JustGivingApi\Models</title>
<path fill="none" stroke="#c0c0c0" d="M55.8769,-264C55.8769,-264 350.6714,-264 350.6714,-264 356.6714,-264 362.6714,-270 362.6714,-276 362.6714,-276 362.6714,-539 362.6714,-539 362.6714,-545 356.6714,-551 350.6714,-551 350.6714,-551 55.8769,-551 55.8769,-551 49.8769,-551 43.8769,-545 43.8769,-539 43.8769,-539 43.8769,-276 43.8769,-276 43.8769,-270 49.8769,-264 55.8769,-264"/>
<text text-anchor="middle" x="203.2742" y="-538.2" font-family="Times,serif" font-size="11.00" fill="#c0c0c0">Models</text>
</g>
<g id="clust6" class="cluster">
<title>cluster_\JustGivingApi\Transport</title>
<path fill="none" stroke="#c0c0c0" d="M263.4586,-106C263.4586,-106 330.8682,-106 330.8682,-106 336.8682,-106 342.8682,-112 342.8682,-118 342.8682,-118 342.8682,-165 342.8682,-165 342.8682,-171 336.8682,-177 330.8682,-177 330.8682,-177 263.4586,-177 263.4586,-177 257.4586,-177 251.4586,-171 251.4586,-165 251.4586,-165 251.4586,-118 251.4586,-118 251.4586,-112 257.4586,-106 263.4586,-106"/>
<text text-anchor="middle" x="297.1634" y="-164.2" font-family="Times,serif" font-size="11.00" fill="#c0c0c0">Transport</text>
</g>
<!-- \\JustGivingApi\\Exceptions\\ApiException -->
<g id="node1" class="node">
<title>\\JustGivingApi\\Exceptions\\ApiException</title>
<polygon fill="none" stroke="#000000" points="344.8765,-229 249.4503,-229 249.4503,-193 344.8765,-193 344.8765,-229"/>
<text text-anchor="middle" x="297.1634" y="-207.7" font-family="Courier,monospace" font-size="11.00" fill="#000000">ApiException</text>
</g>
<!-- \\RuntimeException -->
<g id="node19" class="node">
<title>\\RuntimeException</title>
<ellipse fill="none" stroke="#000000" cx="78.8769" cy="-18" rx="78.7539" ry="18"/>
<text text-anchor="middle" x="78.8769" y="-13.8" font-family="Times,serif" font-size="14.00" fill="#c0c0c0">\RuntimeException</text>
</g>
<!-- \\JustGivingApi\\Exceptions\\ApiException&#45;&gt;\\RuntimeException -->
<g id="edge1" class="edge">
<title>\\JustGivingApi\\Exceptions\\ApiException&#45;&gt;\\RuntimeException</title>
<path fill="none" stroke="#000000" d="M249.7618,-192.8621C242.7919,-189.3649 235.8988,-185.3997 229.7537,-181 174.5476,-141.4742 123.9074,-79.2091 97.6688,-44.1838"/>
<polygon fill="none" stroke="#000000" points="100.2979,-41.8527 91.5358,-35.8964 94.6711,-46.0168 100.2979,-41.8527"/>
</g>
<!-- \\JustGivingApi\\Services\\EventsService -->
<g id="node2" class="node">
<title>\\JustGivingApi\\Services\\EventsService</title>
<polygon fill="none" stroke="#000000" points="347.9775,-981 246.3493,-981 246.3493,-945 347.9775,-945 347.9775,-981"/>
<text text-anchor="middle" x="297.1634" y="-959.7" font-family="Courier,monospace" font-size="11.00" fill="#000000">EventsService</text>
</g>
<!-- \\JustGivingApi\\Services\\Service -->
<g id="node5" class="node">
<title>\\JustGivingApi\\Services\\Service</title>
<polygon fill="none" stroke="#000000" points="110.0847,-792 47.669,-792 47.669,-756 110.0847,-756 110.0847,-792"/>
<text text-anchor="middle" x="78.8769" y="-770.7" font-family="Courier,monospace" font-size="11.00" fill="#000000">Service</text>
</g>
<!-- \\JustGivingApi\\Services\\EventsService&#45;&gt;\\JustGivingApi\\Services\\Service -->
<g id="edge2" class="edge">
<title>\\JustGivingApi\\Services\\EventsService&#45;&gt;\\JustGivingApi\\Services\\Service</title>
<path fill="none" stroke="#000000" d="M246.2111,-945.44C240.4631,-942.6378 234.8488,-939.4929 229.7537,-936 173.9371,-897.7358 123.5262,-835.4699 97.4903,-800.3212"/>
<polygon fill="none" stroke="#000000" points="100.1348,-798.0079 91.4078,-792.0005 94.4837,-802.139 100.1348,-798.0079"/>
</g>
<!-- \\JustGivingApi\\Services\\FundraisingService -->
<g id="node3" class="node">
<title>\\JustGivingApi\\Services\\FundraisingService</title>
<polygon fill="none" stroke="#000000" points="364.4828,-927 229.8439,-927 229.8439,-891 364.4828,-891 364.4828,-927"/>
<text text-anchor="middle" x="297.1634" y="-905.7" font-family="Courier,monospace" font-size="11.00" fill="#000000">FundraisingService</text>
</g>
<!-- \\JustGivingApi\\Services\\FundraisingService&#45;&gt;\\JustGivingApi\\Services\\Service -->
<g id="edge3" class="edge">
<title>\\JustGivingApi\\Services\\FundraisingService&#45;&gt;\\JustGivingApi\\Services\\Service</title>
<path fill="none" stroke="#000000" d="M247.9208,-890.889C241.6984,-888.1333 235.5033,-885.1493 229.7537,-882 185.0774,-857.5285 138.026,-822.0808 108.5805,-798.5544"/>
<polygon fill="none" stroke="#000000" points="110.7422,-795.8014 100.7589,-792.2539 106.351,-801.2528 110.7422,-795.8014"/>
</g>
<!-- \\JustGivingApi\\Services\\TeamService -->
<g id="node4" class="node">
<title>\\JustGivingApi\\Services\\TeamService</title>
<polygon fill="none" stroke="#000000" points="341.2761,-873 253.0507,-873 253.0507,-837 341.2761,-837 341.2761,-873"/>
<text text-anchor="middle" x="297.1634" y="-851.7" font-family="Courier,monospace" font-size="11.00" fill="#000000">TeamService</text>
</g>
<!-- \\JustGivingApi\\Services\\TeamService&#45;&gt;\\JustGivingApi\\Services\\Service -->
<g id="edge4" class="edge">
<title>\\JustGivingApi\\Services\\TeamService&#45;&gt;\\JustGivingApi\\Services\\Service</title>
<path fill="none" stroke="#000000" d="M252.9899,-838.6084C214.1079,-824.1804 157.9298,-803.3343 119.9912,-789.2564"/>
<polygon fill="none" stroke="#000000" points="120.8757,-785.8514 110.2827,-785.6538 118.4404,-792.4142 120.8757,-785.8514"/>
</g>
<!-- \\JustGivingApi\\Services\\AccountsService -->
<g id="node6" class="node">
<title>\\JustGivingApi\\Services\\AccountsService</title>
<polygon fill="none" stroke="#000000" points="354.6795,-819 239.6473,-819 239.6473,-783 354.6795,-783 354.6795,-819"/>
<text text-anchor="middle" x="297.1634" y="-797.7" font-family="Courier,monospace" font-size="11.00" fill="#000000">AccountsService</text>
</g>
<!-- \\JustGivingApi\\Services\\AccountsService&#45;&gt;\\JustGivingApi\\Services\\Service -->
<g id="edge5" class="edge">
<title>\\JustGivingApi\\Services\\AccountsService&#45;&gt;\\JustGivingApi\\Services\\Service</title>
<path fill="none" stroke="#000000" d="M239.5256,-793.8708C201.9793,-789.2266 153.8814,-783.2774 120.139,-779.1037"/>
<polygon fill="none" stroke="#000000" points="120.5097,-775.623 110.1556,-777.8689 119.6503,-782.5701 120.5097,-775.623"/>
</g>
<!-- \\JustGivingApi\\Services\\OneSearchService -->
<g id="node7" class="node">
<title>\\JustGivingApi\\Services\\OneSearchService</title>
<polygon fill="none" stroke="#000000" points="357.7812,-765 236.5456,-765 236.5456,-729 357.7812,-729 357.7812,-765"/>
<text text-anchor="middle" x="297.1634" y="-743.7" font-family="Courier,monospace" font-size="11.00" fill="#000000">OneSearchService</text>
</g>
<!-- \\JustGivingApi\\Services\\OneSearchService&#45;&gt;\\JustGivingApi\\Services\\Service -->
<g id="edge6" class="edge">
<title>\\JustGivingApi\\Services\\OneSearchService&#45;&gt;\\JustGivingApi\\Services\\Service</title>
<path fill="none" stroke="#000000" d="M236.3584,-754.521C199.3632,-759.097 153.0825,-764.8215 120.2905,-768.8775"/>
<polygon fill="none" stroke="#000000" points="119.6413,-765.4311 110.1466,-770.1322 120.5006,-772.3781 119.6413,-765.4311"/>
</g>
<!-- \\JustGivingApi\\Services\\CurrencyService -->
<g id="node8" class="node">
<title>\\JustGivingApi\\Services\\CurrencyService</title>
<polygon fill="none" stroke="#000000" points="354.6795,-711 239.6473,-711 239.6473,-675 354.6795,-675 354.6795,-711"/>
<text text-anchor="middle" x="297.1634" y="-689.7" font-family="Courier,monospace" font-size="11.00" fill="#000000">CurrencyService</text>
</g>
<!-- \\JustGivingApi\\Services\\CurrencyService&#45;&gt;\\JustGivingApi\\Services\\Service -->
<g id="edge7" class="edge">
<title>\\JustGivingApi\\Services\\CurrencyService&#45;&gt;\\JustGivingApi\\Services\\Service</title>
<path fill="none" stroke="#000000" d="M248.4473,-711.0772C209.8563,-725.3972 156.5477,-745.1785 120.0642,-758.7165"/>
<polygon fill="none" stroke="#000000" points="118.4041,-755.5993 110.2464,-762.3597 120.8394,-762.162 118.4041,-755.5993"/>
</g>
<!-- \\JustGivingApi\\Services\\CountriesService -->
<g id="node9" class="node">
<title>\\JustGivingApi\\Services\\CountriesService</title>
<polygon fill="none" stroke="#000000" points="357.7812,-657 236.5456,-657 236.5456,-621 357.7812,-621 357.7812,-657"/>
<text text-anchor="middle" x="297.1634" y="-635.7" font-family="Courier,monospace" font-size="11.00" fill="#000000">CountriesService</text>
</g>
<!-- \\JustGivingApi\\Services\\CountriesService&#45;&gt;\\JustGivingApi\\Services\\Service -->
<g id="edge8" class="edge">
<title>\\JustGivingApi\\Services\\CountriesService&#45;&gt;\\JustGivingApi\\Services\\Service</title>
<path fill="none" stroke="#000000" d="M247.9208,-657.111C241.6984,-659.8667 235.5033,-662.8507 229.7537,-666 185.0774,-690.4715 138.026,-725.9192 108.5805,-749.4456"/>
<polygon fill="none" stroke="#000000" points="106.351,-746.7472 100.7589,-755.7461 110.7422,-752.1986 106.351,-746.7472"/>
</g>
<!-- \\JustGivingApi\\Services\\OAuth2Service -->
<g id="node10" class="node">
<title>\\JustGivingApi\\Services\\OAuth2Service</title>
<polygon fill="none" stroke="#000000" points="347.9775,-603 246.3493,-603 246.3493,-567 347.9775,-567 347.9775,-603"/>
<text text-anchor="middle" x="297.1634" y="-581.7" font-family="Courier,monospace" font-size="11.00" fill="#000000">OAuth2Service</text>
</g>
<!-- \\JustGivingApi\\Services\\OAuth2Service&#45;&gt;\\JustGivingApi\\Services\\Service -->
<g id="edge10" class="edge">
<title>\\JustGivingApi\\Services\\OAuth2Service&#45;&gt;\\JustGivingApi\\Services\\Service</title>
<path fill="none" stroke="#000000" d="M246.2111,-602.56C240.4631,-605.3622 234.8488,-608.5071 229.7537,-612 173.9371,-650.2642 123.5262,-712.5301 97.4903,-747.6788"/>
<polygon fill="none" stroke="#000000" points="94.4837,-745.861 91.4078,-755.9995 100.1348,-749.9921 94.4837,-745.861"/>
</g>
<!-- \\JustGivingApi\\Models\\Query -->
<g id="node11" class="node">
<title>\\JustGivingApi\\Models\\Query</title>
<polygon fill="none" stroke="#000000" points="324.1634,-524 270.1634,-524 270.1634,-488 324.1634,-488 324.1634,-524"/>
<text text-anchor="middle" x="297.1634" y="-502.7" font-family="Courier,monospace" font-size="11.00" fill="#000000">Query</text>
</g>
<!-- \\JustGivingApi\\Models\\Model -->
<g id="node12" class="node">
<title>\\JustGivingApi\\Models\\Model</title>
<polygon fill="none" stroke="#000000" points="105.8769,-389 51.8769,-389 51.8769,-353 105.8769,-353 105.8769,-389"/>
<text text-anchor="middle" x="78.8769" y="-367.7" font-family="Courier,monospace" font-size="11.00" fill="#000000">Model</text>
</g>
<!-- \\JustGivingApi\\Models\\Team -->
<g id="node13" class="node">
<title>\\JustGivingApi\\Models\\Team</title>
<polygon fill="none" stroke="#000000" points="324.1634,-470 270.1634,-470 270.1634,-434 324.1634,-434 324.1634,-470"/>
<text text-anchor="middle" x="297.1634" y="-448.7" font-family="Courier,monospace" font-size="11.00" fill="#000000">Team</text>
</g>
<!-- \\JustGivingApi\\Models\\Team&#45;&gt;\\JustGivingApi\\Models\\Model -->
<g id="edge9" class="edge">
<title>\\JustGivingApi\\Models\\Team&#45;&gt;\\JustGivingApi\\Models\\Model</title>
<path fill="none" stroke="#000000" d="M269.9586,-441.9051C230.964,-427.4353 159.0846,-400.7629 115.466,-384.5772"/>
<polygon fill="none" stroke="#000000" points="116.6738,-381.2922 106.0808,-381.0946 114.2385,-387.855 116.6738,-381.2922"/>
</g>
<!-- \\JustGivingApi\\Models\\Account -->
<g id="node14" class="node">
<title>\\JustGivingApi\\Models\\Account</title>
<polygon fill="none" stroke="#000000" points="328.3713,-416 265.9555,-416 265.9555,-380 328.3713,-380 328.3713,-416"/>
<text text-anchor="middle" x="297.1634" y="-394.7" font-family="Courier,monospace" font-size="11.00" fill="#000000">Account</text>
</g>
<!-- \\JustGivingApi\\Models\\Account&#45;&gt;\\JustGivingApi\\Models\\Model -->
<g id="edge11" class="edge">
<title>\\JustGivingApi\\Models\\Account&#45;&gt;\\JustGivingApi\\Models\\Model</title>
<path fill="none" stroke="#000000" d="M265.8883,-394.1316C226.3298,-389.2385 158.2947,-380.8232 116.102,-375.6044"/>
<polygon fill="none" stroke="#000000" points="116.3189,-372.1046 105.9649,-374.3505 115.4596,-379.0517 116.3189,-372.1046"/>
</g>
<!-- \\JustGivingApi\\Models\\FundraisingPage -->
<g id="node15" class="node">
<title>\\JustGivingApi\\Models\\FundraisingPage</title>
<polygon fill="none" stroke="#000000" points="354.6795,-362 239.6473,-362 239.6473,-326 354.6795,-326 354.6795,-362"/>
<text text-anchor="middle" x="297.1634" y="-340.7" font-family="Courier,monospace" font-size="11.00" fill="#000000">FundraisingPage</text>
</g>
<!-- \\JustGivingApi\\Models\\FundraisingPage&#45;&gt;\\JustGivingApi\\Models\\Model -->
<g id="edge12" class="edge">
<title>\\JustGivingApi\\Models\\FundraisingPage&#45;&gt;\\JustGivingApi\\Models\\Model</title>
<path fill="none" stroke="#000000" d="M239.5256,-351.1292C200.3767,-355.9716 149.7563,-362.2329 115.8987,-366.4207"/>
<polygon fill="none" stroke="#000000" points="115.4553,-362.9488 105.9606,-367.65 116.3146,-369.8959 115.4553,-362.9488"/>
</g>
<!-- \\JustGivingApi\\Models\\Event -->
<g id="node16" class="node">
<title>\\JustGivingApi\\Models\\Event</title>
<polygon fill="none" stroke="#000000" points="324.1634,-308 270.1634,-308 270.1634,-272 324.1634,-272 324.1634,-308"/>
<text text-anchor="middle" x="297.1634" y="-286.7" font-family="Courier,monospace" font-size="11.00" fill="#000000">Event</text>
</g>
<!-- \\JustGivingApi\\Models\\Event&#45;&gt;\\JustGivingApi\\Models\\Model -->
<g id="edge13" class="edge">
<title>\\JustGivingApi\\Models\\Event&#45;&gt;\\JustGivingApi\\Models\\Model</title>
<path fill="none" stroke="#000000" d="M269.9586,-300.0949C230.964,-314.5647 159.0846,-341.2371 115.466,-357.4228"/>
<polygon fill="none" stroke="#000000" points="114.2385,-354.145 106.0808,-360.9054 116.6738,-360.7078 114.2385,-354.145"/>
</g>
<!-- \\JustGivingApi\\Transport\\Transport -->
<g id="node17" class="node">
<title>\\JustGivingApi\\Transport\\Transport</title>
<polygon fill="none" stroke="#000000" points="335.0742,-150 259.2526,-150 259.2526,-114 335.0742,-114 335.0742,-150"/>
<text text-anchor="middle" x="297.1634" y="-128.7" font-family="Courier,monospace" font-size="11.00" fill="#000000">Transport</text>
</g>
<!-- \\JustGivingApi\\JustGivingApi -->
<g id="node18" class="node">
<title>\\JustGivingApi\\JustGivingApi</title>
<polygon fill="none" stroke="#000000" points="347.9775,-96 246.3493,-96 246.3493,-60 347.9775,-60 347.9775,-96"/>
<text text-anchor="middle" x="297.1634" y="-74.7" font-family="Courier,monospace" font-size="11.00" fill="#000000">JustGivingApi</text>
</g>
</g>
</svg>
