<?xml version="1.0" encoding="UTF-8" standalone="no"?>
<!DOCTYPE svg PUBLIC "-//W3C//DTD SVG 1.1//EN"
 "http://www.w3.org/Graphics/SVG/1.1/DTD/svg11.dtd">
<!-- Generated by graphviz version 2.40.1 (20161225.0304)
 -->
<!-- Title: G Pages: 1 -->
<svg width="405pt" height="970pt"
 viewBox="0.00 0.00 404.57 970.00" xmlns="http://www.w3.org/2000/svg" xmlns:xlink="http://www.w3.org/1999/xlink">
<g id="graph0" class="graph" transform="scale(1 1) rotate(0) translate(4 966)">
<title>G</title>
<polygon fill="#ffffff" stroke="transparent" points="-4,4 -4,-966 400.5731,-966 400.5731,4 -4,4"/>
<g id="clust1" class="cluster">
<title>cluster_Global</title>
<path fill="none" stroke="#c0c0c0" d="M35.7731,-44C35.7731,-44 376.5731,-44 376.5731,-44 382.5731,-44 388.5731,-50 388.5731,-56 388.5731,-56 388.5731,-942 388.5731,-942 388.5731,-948 382.5731,-954 376.5731,-954 376.5731,-954 35.7731,-954 35.7731,-954 29.7731,-954 23.7731,-948 23.7731,-942 23.7731,-942 23.7731,-56 23.7731,-56 23.7731,-50 29.7731,-44 35.7731,-44"/>
<text text-anchor="middle" x="206.1731" y="-941.2" font-family="Times,serif" font-size="11.00" fill="#c0c0c0">Global</text>
</g>
<g id="clust2" class="cluster">
<title>cluster_\JustGivingApi</title>
<path fill="none" stroke="#c0c0c0" d="M43.7731,-52C43.7731,-52 368.5731,-52 368.5731,-52 374.5731,-52 380.5731,-58 380.5731,-64 380.5731,-64 380.5731,-915 380.5731,-915 380.5731,-921 374.5731,-927 368.5731,-927 368.5731,-927 43.7731,-927 43.7731,-927 37.7731,-927 31.7731,-921 31.7731,-915 31.7731,-915 31.7731,-64 31.7731,-64 31.7731,-58 37.7731,-52 43.7731,-52"/>
<text text-anchor="middle" x="206.1731" y="-914.2" font-family="Times,serif" font-size="11.00" fill="#c0c0c0">JustGivingApi</text>
</g>
<g id="clust3" class="cluster">
<title>cluster_\JustGivingApi\Exceptions</title>
<path fill="none" stroke="#c0c0c0" d="M253.5569,-185C253.5569,-185 340.7698,-185 340.7698,-185 346.7698,-185 352.7698,-191 352.7698,-197 352.7698,-197 352.7698,-244 352.7698,-244 352.7698,-250 346.7698,-256 340.7698,-256 340.7698,-256 253.5569,-256 253.5569,-256 247.5569,-256 241.5569,-250 241.5569,-244 241.5569,-244 241.5569,-197 241.5569,-197 241.5569,-191 247.5569,-185 253.5569,-185"/>
<text text-anchor="middle" x="297.1634" y="-243.2" font-family="Times,serif" font-size="11.00" fill="#c0c0c0">Exceptions</text>
</g>
<g id="clust4" class="cluster">
<title>cluster_\JustGivingApi\Services</title>
<path fill="none" stroke="#c0c0c0" d="M51.7731,-505C51.7731,-505 360.5731,-505 360.5731,-505 366.5731,-505 372.5731,-511 372.5731,-517 372.5731,-517 372.5731,-888 372.5731,-888 372.5731,-894 366.5731,-900 360.5731,-900 360.5731,-900 51.7731,-900 51.7731,-900 45.7731,-900 39.7731,-894 39.7731,-888 39.7731,-888 39.7731,-517 39.7731,-517 39.7731,-511 45.7731,-505 51.7731,-505"/>
<text text-anchor="middle" x="206.1731" y="-887.2" font-family="Times,serif" font-size="11.00" fill="#c0c0c0">Services</text>
</g>
<g id="clust5" class="cluster">
<title>cluster_\JustGivingApi\Models</title>
<path fill="none" stroke="#c0c0c0" d="M55.8769,-264C55.8769,-264 350.6714,-264 350.6714,-264 356.6714,-264 362.6714,-270 362.6714,-276 362.6714,-276 362.6714,-485 362.6714,-485 362.6714,-491 356.6714,-497 350.6714,-497 350.6714,-497 55.8769,-497 55.8769,-497 49.8769,-497 43.8769,-491 43.8769,-485 43.8769,-485 43.8769,-276 43.8769,-276 43.8769,-270 49.8769,-264 55.8769,-264"/>
<text text-anchor="middle" x="203.2742" y="-484.2" font-family="Times,serif" font-size="11.00" fill="#c0c0c0">Models</text>
</g>
<g id="clust6" class="cluster">
<title>cluster_\JustGivingApi\Transport</title>
<path fill="none" stroke="#c0c0c0" d="M263.4586,-106C263.4586,-106 330.8682,-106 330.8682,-106 336.8682,-106 342.8682,-112 342.8682,-118 342.8682,-118 342.8682,-165 342.8682,-165 342.8682,-171 336.8682,-177 330.8682,-177 330.8682,-177 263.4586,-177 263.4586,-177 257.4586,-177 251.4586,-171 251.4586,-165 251.4586,-165 251.4586,-118 251.4586,-118 251.4586,-112 257.4586,-106 263.4586,-106"/>
<text text-anchor="middle" x="297.1634" y="-164.2" font-family="Times,serif" font-size="11.00" fill="#c0c0c0">Transport</text>
</g>
<!-- \\JustGivingApi\\Exceptions\\ApiException -->
<g id="node1" class="node">
<title>\\JustGivingApi\\Exceptions\\ApiException</title>
<polygon fill="none" stroke="#000000" points="344.8765,-229 249.4503,-229 249.4503,-193 344.8765,-193 344.8765,-229"/>
<text text-anchor="middle" x="297.1634" y="-207.7" font-family="Courier,monospace" font-size="11.00" fill="#000000">ApiException</text>
</g>
<!-- \\RuntimeException -->
<g id="node17" class="node">
<title>\\RuntimeException</title>
<ellipse fill="none" stroke="#000000" cx="78.8769" cy="-18" rx="78.7539" ry="18"/>
<text text-anchor="middle" x="78.8769" y="-13.8" font-family="Times,serif" font-size="14.00" fill="#c0c0c0">\RuntimeException</text>
</g>
<!-- \\JustGivingApi\\Exceptions\\ApiException&#45;&gt;\\RuntimeException -->
<g id="edge1" class="edge">
<title>\\JustGivingApi\\Exceptions\\ApiException&#45;&gt;\\RuntimeException</title>
<path fill="none" stroke="#000000" d="M249.7618,-192.8621C242.7919,-189.3649 235.8988,-185.3997 229.7537,-181 174.5476,-141.4742 123.9074,-79.2091 97.6688,-44.1838"/>
<polygon fill="none" stroke="#000000" points="100.2979,-41.8527 91.5358,-35.8964 94.6711,-46.0168 100.2979,-41.8527"/>
</g>
<!-- \\JustGivingApi\\Services\\EventsService -->
<g id="node2" class="node">
<title>\\JustGivingApi\\Services\\EventsService</title>
<polygon fill="none" stroke="#000000" points="347.9775,-873 246.3493,-873 246.3493,-837 347.9775,-837 347.9775,-873"/>
<text text-anchor="middle" x="297.1634" y="-851.7" font-family="Courier,monospace" font-size="11.00" fill="#000000">EventsService</text>
</g>
<!-- \\JustGivingApi\\Services\\Service -->
<g id="node5" class="node">
<title>\\JustGivingApi\\Services\\Service</title>
<polygon fill="none" stroke="#000000" points="110.0847,-711 47.669,-711 47.669,-675 110.0847,-675 110.0847,-711"/>
<text text-anchor="middle" x="78.8769" y="-689.7" font-family="Courier,monospace" font-size="11.00" fill="#000000">Service</text>
</g>
<!-- \\JustGivingApi\\Services\\EventsService&#45;&gt;\\JustGivingApi\\Services\\Service -->
<g id="edge2" class="edge">
<title>\\JustGivingApi\\Services\\EventsService&#45;&gt;\\JustGivingApi\\Services\\Service</title>
<path fill="none" stroke="#000000" d="M246.5125,-836.9783C240.7115,-834.2571 235.0024,-831.2575 229.7537,-828 179.5844,-796.864 130.2896,-748.4596 102.3246,-718.8573"/>
<polygon fill="none" stroke="#000000" points="104.7383,-716.314 95.3532,-711.3975 99.6239,-721.0935 104.7383,-716.314"/>
</g>
<!-- \\JustGivingApi\\Services\\FundraisingService -->
<g id="node3" class="node">
<title>\\JustGivingApi\\Services\\FundraisingService</title>
<polygon fill="none" stroke="#000000" points="364.4828,-819 229.8439,-819 229.8439,-783 364.4828,-783 364.4828,-819"/>
<text text-anchor="middle" x="297.1634" y="-797.7" font-family="Courier,monospace" font-size="11.00" fill="#000000">FundraisingService</text>
</g>
<!-- \\JustGivingApi\\Services\\FundraisingService&#45;&gt;\\JustGivingApi\\Services\\Service -->
<g id="edge3" class="edge">
<title>\\JustGivingApi\\Services\\FundraisingService&#45;&gt;\\JustGivingApi\\Services\\Service</title>
<path fill="none" stroke="#000000" d="M250.0946,-782.9308C243.2184,-780.0651 236.2649,-777.0402 229.7537,-774 191.4257,-756.1039 149.0964,-733.0799 119.0531,-716.156"/>
<polygon fill="none" stroke="#000000" points="120.5684,-712.992 110.1417,-711.1121 117.1203,-719.0839 120.5684,-712.992"/>
</g>
<!-- \\JustGivingApi\\Services\\TeamService -->
<g id="node4" class="node">
<title>\\JustGivingApi\\Services\\TeamService</title>
<polygon fill="none" stroke="#000000" points="341.2761,-765 253.0507,-765 253.0507,-729 341.2761,-729 341.2761,-765"/>
<text text-anchor="middle" x="297.1634" y="-743.7" font-family="Courier,monospace" font-size="11.00" fill="#000000">TeamService</text>
</g>
<!-- \\JustGivingApi\\Services\\TeamService&#45;&gt;\\JustGivingApi\\Services\\Service -->
<g id="edge4" class="edge">
<title>\\JustGivingApi\\Services\\TeamService&#45;&gt;\\JustGivingApi\\Services\\Service</title>
<path fill="none" stroke="#000000" d="M252.9899,-736.0723C214.1079,-726.4536 157.9298,-712.5562 119.9912,-703.1709"/>
<polygon fill="none" stroke="#000000" points="120.8306,-699.7731 110.2827,-700.7692 119.1495,-706.5683 120.8306,-699.7731"/>
</g>
<!-- \\JustGivingApi\\Services\\AccountsService -->
<g id="node6" class="node">
<title>\\JustGivingApi\\Services\\AccountsService</title>
<polygon fill="none" stroke="#000000" points="354.6795,-711 239.6473,-711 239.6473,-675 354.6795,-675 354.6795,-711"/>
<text text-anchor="middle" x="297.1634" y="-689.7" font-family="Courier,monospace" font-size="11.00" fill="#000000">AccountsService</text>
</g>
<!-- \\JustGivingApi\\Services\\AccountsService&#45;&gt;\\JustGivingApi\\Services\\Service -->
<g id="edge5" class="edge">
<title>\\JustGivingApi\\Services\\AccountsService&#45;&gt;\\JustGivingApi\\Services\\Service</title>
<path fill="none" stroke="#000000" d="M239.5256,-693C202.1411,-693 154.2958,-693 120.5761,-693"/>
<polygon fill="none" stroke="#000000" points="120.1557,-689.5001 110.1556,-693 120.1556,-696.5001 120.1557,-689.5001"/>
</g>
<!-- \\JustGivingApi\\Services\\CurrencyService -->
<g id="node7" class="node">
<title>\\JustGivingApi\\Services\\CurrencyService</title>
<polygon fill="none" stroke="#000000" points="354.6795,-657 239.6473,-657 239.6473,-621 354.6795,-621 354.6795,-657"/>
<text text-anchor="middle" x="297.1634" y="-635.7" font-family="Courier,monospace" font-size="11.00" fill="#000000">CurrencyService</text>
</g>
<!-- \\JustGivingApi\\Services\\CurrencyService&#45;&gt;\\JustGivingApi\\Services\\Service -->
<g id="edge6" class="edge">
<title>\\JustGivingApi\\Services\\CurrencyService&#45;&gt;\\JustGivingApi\\Services\\Service</title>
<path fill="none" stroke="#000000" d="M239.5256,-653.2585C201.9793,-662.5468 153.8814,-674.4453 120.139,-682.7925"/>
<polygon fill="none" stroke="#000000" points="119.0225,-679.4631 110.1556,-685.2622 120.7035,-686.2583 119.0225,-679.4631"/>
</g>
<!-- \\JustGivingApi\\Services\\CountriesService -->
<g id="node8" class="node">
<title>\\JustGivingApi\\Services\\CountriesService</title>
<polygon fill="none" stroke="#000000" points="357.7812,-603 236.5456,-603 236.5456,-567 357.7812,-567 357.7812,-603"/>
<text text-anchor="middle" x="297.1634" y="-581.7" font-family="Courier,monospace" font-size="11.00" fill="#000000">CountriesService</text>
</g>
<!-- \\JustGivingApi\\Services\\CountriesService&#45;&gt;\\JustGivingApi\\Services\\Service -->
<g id="edge7" class="edge">
<title>\\JustGivingApi\\Services\\CountriesService&#45;&gt;\\JustGivingApi\\Services\\Service</title>
<path fill="none" stroke="#000000" d="M250.0946,-603.0692C243.2184,-605.9349 236.2649,-608.9598 229.7537,-612 191.4257,-629.8961 149.0964,-652.9201 119.0531,-669.844"/>
<polygon fill="none" stroke="#000000" points="117.1203,-666.9161 110.1417,-674.8879 120.5684,-673.008 117.1203,-666.9161"/>
</g>
<!-- \\JustGivingApi\\Services\\OAuth2Service -->
<g id="node9" class="node">
<title>\\JustGivingApi\\Services\\OAuth2Service</title>
<polygon fill="none" stroke="#000000" points="347.9775,-549 246.3493,-549 246.3493,-513 347.9775,-513 347.9775,-549"/>
<text text-anchor="middle" x="297.1634" y="-527.7" font-family="Courier,monospace" font-size="11.00" fill="#000000">OAuth2Service</text>
</g>
<!-- \\JustGivingApi\\Services\\OAuth2Service&#45;&gt;\\JustGivingApi\\Services\\Service -->
<g id="edge9" class="edge">
<title>\\JustGivingApi\\Services\\OAuth2Service&#45;&gt;\\JustGivingApi\\Services\\Service</title>
<path fill="none" stroke="#000000" d="M246.5125,-549.0217C240.7115,-551.7429 235.0024,-554.7425 229.7537,-558 179.5844,-589.136 130.2896,-637.5404 102.3246,-667.1427"/>
<polygon fill="none" stroke="#000000" points="99.6239,-664.9065 95.3532,-674.6025 104.7383,-669.686 99.6239,-664.9065"/>
</g>
<!-- \\JustGivingApi\\Models\\Model -->
<g id="node10" class="node">
<title>\\JustGivingApi\\Models\\Model</title>
<polygon fill="none" stroke="#000000" points="105.8769,-389 51.8769,-389 51.8769,-353 105.8769,-353 105.8769,-389"/>
<text text-anchor="middle" x="78.8769" y="-367.7" font-family="Courier,monospace" font-size="11.00" fill="#000000">Model</text>
</g>
<!-- \\JustGivingApi\\Models\\Team -->
<g id="node11" class="node">
<title>\\JustGivingApi\\Models\\Team</title>
<polygon fill="none" stroke="#000000" points="324.1634,-470 270.1634,-470 270.1634,-434 324.1634,-434 324.1634,-470"/>
<text text-anchor="middle" x="297.1634" y="-448.7" font-family="Courier,monospace" font-size="11.00" fill="#000000">Team</text>
</g>
<!-- \\JustGivingApi\\Models\\Team&#45;&gt;\\JustGivingApi\\Models\\Model -->
<g id="edge8" class="edge">
<title>\\JustGivingApi\\Models\\Team&#45;&gt;\\JustGivingApi\\Models\\Model</title>
<path fill="none" stroke="#000000" d="M269.9586,-441.9051C230.964,-427.4353 159.0846,-400.7629 115.466,-384.5772"/>
<polygon fill="none" stroke="#000000" points="116.6738,-381.2922 106.0808,-381.0946 114.2385,-387.855 116.6738,-381.2922"/>
</g>
<!-- \\JustGivingApi\\Models\\Account -->
<g id="node12" class="node">
<title>\\JustGivingApi\\Models\\Account</title>
<polygon fill="none" stroke="#000000" points="328.3713,-416 265.9555,-416 265.9555,-380 328.3713,-380 328.3713,-416"/>
<text text-anchor="middle" x="297.1634" y="-394.7" font-family="Courier,monospace" font-size="11.00" fill="#000000">Account</text>
</g>
<!-- \\JustGivingApi\\Models\\Account&#45;&gt;\\JustGivingApi\\Models\\Model -->
<g id="edge10" class="edge">
<title>\\JustGivingApi\\Models\\Account&#45;&gt;\\JustGivingApi\\Models\\Model</title>
<path fill="none" stroke="#000000" d="M265.8883,-394.1316C226.3298,-389.2385 158.2947,-380.8232 116.102,-375.6044"/>
<polygon fill="none" stroke="#000000" points="116.3189,-372.1046 105.9649,-374.3505 115.4596,-379.0517 116.3189,-372.1046"/>
</g>
<!-- \\JustGivingApi\\Models\\FundraisingPage -->
<g id="node13" class="node">
<title>\\JustGivingApi\\Models\\FundraisingPage</title>
<polygon fill="none" stroke="#000000" points="354.6795,-362 239.6473,-362 239.6473,-326 354.6795,-326 354.6795,-362"/>
<text text-anchor="middle" x="297.1634" y="-340.7" font-family="Courier,monospace" font-size="11.00" fill="#000000">FundraisingPage</text>
</g>
<!-- \\JustGivingApi\\Models\\FundraisingPage&#45;&gt;\\JustGivingApi\\Models\\Model -->
<g id="edge11" class="edge">
<title>\\JustGivingApi\\Models\\FundraisingPage&#45;&gt;\\JustGivingApi\\Models\\Model</title>
<path fill="none" stroke="#000000" d="M239.5256,-351.1292C200.3767,-355.9716 149.7563,-362.2329 115.8987,-366.4207"/>
<polygon fill="none" stroke="#000000" points="115.4553,-362.9488 105.9606,-367.65 116.3146,-369.8959 115.4553,-362.9488"/>
</g>
<!-- \\JustGivingApi\\Models\\Event -->
<g id="node14" class="node">
<title>\\JustGivingApi\\Models\\Event</title>
<polygon fill="none" stroke="#000000" points="324.1634,-308 270.1634,-308 270.1634,-272 324.1634,-272 324.1634,-308"/>
<text text-anchor="middle" x="297.1634" y="-286.7" font-family="Courier,monospace" font-size="11.00" fill="#000000">Event</text>
</g>
<!-- \\JustGivingApi\\Models\\Event&#45;&gt;\\JustGivingApi\\Models\\Model -->
<g id="edge12" class="edge">
<title>\\JustGivingApi\\Models\\Event&#45;&gt;\\JustGivingApi\\Models\\Model</title>
<path fill="none" stroke="#000000" d="M269.9586,-300.0949C230.964,-314.5647 159.0846,-341.2371 115.466,-357.4228"/>
<polygon fill="none" stroke="#000000" points="114.2385,-354.145 106.0808,-360.9054 116.6738,-360.7078 114.2385,-354.145"/>
</g>
<!-- \\JustGivingApi\\Transport\\Transport -->
<g id="node15" class="node">
<title>\\JustGivingApi\\Transport\\Transport</title>
<polygon fill="none" stroke="#000000" points="335.0742,-150 259.2526,-150 259.2526,-114 335.0742,-114 335.0742,-150"/>
<text text-anchor="middle" x="297.1634" y="-128.7" font-family="Courier,monospace" font-size="11.00" fill="#000000">Transport</text>
</g>
<!-- \\JustGivingApi\\JustGivingApi -->
<g id="node16" class="node">
<title>\\JustGivingApi\\JustGivingApi</title>
<polygon fill="none" stroke="#000000" points="347.9775,-96 246.3493,-96 246.3493,-60 347.9775,-60 347.9775,-96"/>
<text text-anchor="middle" x="297.1634" y="-74.7" font-family="Courier,monospace" font-size="11.00" fill="#000000">JustGivingApi</text>
</g>
</g>
</svg>
