<?xml version="1.0" encoding="UTF-8" standalone="no"?>
<!DOCTYPE svg PUBLIC "-//W3C//DTD SVG 1.1//EN"
 "http://www.w3.org/Graphics/SVG/1.1/DTD/svg11.dtd">
<!-- Generated by graphviz version 2.40.1 (20161225.0304)
 -->
<!-- Title: G Pages: 1 -->
<svg width="405pt" height="862pt"
 viewBox="0.00 0.00 404.57 862.00" xmlns="http://www.w3.org/2000/svg" xmlns:xlink="http://www.w3.org/1999/xlink">
<g id="graph0" class="graph" transform="scale(1 1) rotate(0) translate(4 858)">
<title>G</title>
<polygon fill="#ffffff" stroke="transparent" points="-4,4 -4,-858 400.5731,-858 400.5731,4 -4,4"/>
<g id="clust1" class="cluster">
<title>cluster_Global</title>
<path fill="none" stroke="#c0c0c0" d="M35.7731,-44C35.7731,-44 376.5731,-44 376.5731,-44 382.5731,-44 388.5731,-50 388.5731,-56 388.5731,-56 388.5731,-834 388.5731,-834 388.5731,-840 382.5731,-846 376.5731,-846 376.5731,-846 35.7731,-846 35.7731,-846 29.7731,-846 23.7731,-840 23.7731,-834 23.7731,-834 23.7731,-56 23.7731,-56 23.7731,-50 29.7731,-44 35.7731,-44"/>
<text text-anchor="middle" x="206.1731" y="-833.2" font-family="Times,serif" font-size="11.00" fill="#c0c0c0">Global</text>
</g>
<g id="clust2" class="cluster">
<title>cluster_\JustGivingApi</title>
<path fill="none" stroke="#c0c0c0" d="M43.7731,-52C43.7731,-52 368.5731,-52 368.5731,-52 374.5731,-52 380.5731,-58 380.5731,-64 380.5731,-64 380.5731,-807 380.5731,-807 380.5731,-813 374.5731,-819 368.5731,-819 368.5731,-819 43.7731,-819 43.7731,-819 37.7731,-819 31.7731,-813 31.7731,-807 31.7731,-807 31.7731,-64 31.7731,-64 31.7731,-58 37.7731,-52 43.7731,-52"/>
<text text-anchor="middle" x="206.1731" y="-806.2" font-family="Times,serif" font-size="11.00" fill="#c0c0c0">JustGivingApi</text>
</g>
<g id="clust3" class="cluster">
<title>cluster_\JustGivingApi\Exceptions</title>
<path fill="none" stroke="#c0c0c0" d="M253.5569,-185C253.5569,-185 340.7698,-185 340.7698,-185 346.7698,-185 352.7698,-191 352.7698,-197 352.7698,-197 352.7698,-244 352.7698,-244 352.7698,-250 346.7698,-256 340.7698,-256 340.7698,-256 253.5569,-256 253.5569,-256 247.5569,-256 241.5569,-250 241.5569,-244 241.5569,-244 241.5569,-197 241.5569,-197 241.5569,-191 247.5569,-185 253.5569,-185"/>
<text text-anchor="middle" x="297.1634" y="-243.2" font-family="Times,serif" font-size="11.00" fill="#c0c0c0">Exceptions</text>
</g>
<g id="clust4" class="cluster">
<title>cluster_\JustGivingApi\Models</title>
<path fill="none" stroke="#c0c0c0" d="M55.8769,-559C55.8769,-559 350.6714,-559 350.6714,-559 356.6714,-559 362.6714,-565 362.6714,-571 362.6714,-571 362.6714,-780 362.6714,-780 362.6714,-786 356.6714,-792 350.6714,-792 350.6714,-792 55.8769,-792 55.8769,-792 49.8769,-792 43.8769,-786 43.8769,-780 43.8769,-780 43.8769,-571 43.8769,-571 43.8769,-565 49.8769,-559 55.8769,-559"/>
<text text-anchor="middle" x="203.2742" y="-779.2" font-family="Times,serif" font-size="11.00" fill="#c0c0c0">Models</text>
</g>
<g id="clust5" class="cluster">
<title>cluster_\JustGivingApi\Services</title>
<path fill="none" stroke="#c0c0c0" d="M51.7731,-264C51.7731,-264 360.5731,-264 360.5731,-264 366.5731,-264 372.5731,-270 372.5731,-276 372.5731,-276 372.5731,-539 372.5731,-539 372.5731,-545 366.5731,-551 360.5731,-551 360.5731,-551 51.7731,-551 51.7731,-551 45.7731,-551 39.7731,-545 39.7731,-539 39.7731,-539 39.7731,-276 39.7731,-276 39.7731,-270 45.7731,-264 51.7731,-264"/>
<text text-anchor="middle" x="206.1731" y="-538.2" font-family="Times,serif" font-size="11.00" fill="#c0c0c0">Services</text>
</g>
<g id="clust6" class="cluster">
<title>cluster_\JustGivingApi\Transport</title>
<path fill="none" stroke="#c0c0c0" d="M263.4586,-106C263.4586,-106 330.8682,-106 330.8682,-106 336.8682,-106 342.8682,-112 342.8682,-118 342.8682,-118 342.8682,-165 342.8682,-165 342.8682,-171 336.8682,-177 330.8682,-177 330.8682,-177 263.4586,-177 263.4586,-177 257.4586,-177 251.4586,-171 251.4586,-165 251.4586,-165 251.4586,-118 251.4586,-118 251.4586,-112 257.4586,-106 263.4586,-106"/>
<text text-anchor="middle" x="297.1634" y="-164.2" font-family="Times,serif" font-size="11.00" fill="#c0c0c0">Transport</text>
</g>
<!-- \\JustGivingApi\\Exceptions\\ApiException -->
<g id="node1" class="node">
<title>\\JustGivingApi\\Exceptions\\ApiException</title>
<polygon fill="none" stroke="#000000" points="344.8765,-229 249.4503,-229 249.4503,-193 344.8765,-193 344.8765,-229"/>
<text text-anchor="middle" x="297.1634" y="-207.7" font-family="Courier,monospace" font-size="11.00" fill="#000000">ApiException</text>
</g>
<!-- \\RuntimeException -->
<g id="node15" class="node">
<title>\\RuntimeException</title>
<ellipse fill="none" stroke="#000000" cx="78.8769" cy="-18" rx="78.7539" ry="18"/>
<text text-anchor="middle" x="78.8769" y="-13.8" font-family="Times,serif" font-size="14.00" fill="#c0c0c0">\RuntimeException</text>
</g>
<!-- \\JustGivingApi\\Exceptions\\ApiException&#45;&gt;\\RuntimeException -->
<g id="edge1" class="edge">
<title>\\JustGivingApi\\Exceptions\\ApiException&#45;&gt;\\RuntimeException</title>
<path fill="none" stroke="#000000" d="M249.7618,-192.8621C242.7919,-189.3649 235.8988,-185.3997 229.7537,-181 174.5476,-141.4742 123.9074,-79.2091 97.6688,-44.1838"/>
<polygon fill="none" stroke="#000000" points="100.2979,-41.8527 91.5358,-35.8964 94.6711,-46.0168 100.2979,-41.8527"/>
</g>
<!-- \\JustGivingApi\\Models\\Account -->
<g id="node2" class="node">
<title>\\JustGivingApi\\Models\\Account</title>
<polygon fill="none" stroke="#000000" points="328.3713,-765 265.9555,-765 265.9555,-729 328.3713,-729 328.3713,-765"/>
<text text-anchor="middle" x="297.1634" y="-743.7" font-family="Courier,monospace" font-size="11.00" fill="#000000">Account</text>
</g>
<!-- \\JustGivingApi\\Models\\Model -->
<g id="node5" class="node">
<title>\\JustGivingApi\\Models\\Model</title>
<polygon fill="none" stroke="#000000" points="105.8769,-684 51.8769,-684 51.8769,-648 105.8769,-648 105.8769,-684"/>
<text text-anchor="middle" x="78.8769" y="-662.7" font-family="Courier,monospace" font-size="11.00" fill="#000000">Model</text>
</g>
<!-- \\JustGivingApi\\Models\\Account&#45;&gt;\\JustGivingApi\\Models\\Model -->
<g id="edge2" class="edge">
<title>\\JustGivingApi\\Models\\Account&#45;&gt;\\JustGivingApi\\Models\\Model</title>
<path fill="none" stroke="#000000" d="M265.8883,-735.3947C226.1622,-720.6534 157.7176,-695.2556 115.567,-679.6147"/>
<polygon fill="none" stroke="#000000" points="116.5579,-676.2492 105.9649,-676.0516 114.1226,-682.812 116.5579,-676.2492"/>
</g>
<!-- \\JustGivingApi\\Models\\Event -->
<g id="node3" class="node">
<title>\\JustGivingApi\\Models\\Event</title>
<polygon fill="none" stroke="#000000" points="324.1634,-711 270.1634,-711 270.1634,-675 324.1634,-675 324.1634,-711"/>
<text text-anchor="middle" x="297.1634" y="-689.7" font-family="Courier,monospace" font-size="11.00" fill="#000000">Event</text>
</g>
<!-- \\JustGivingApi\\Models\\Event&#45;&gt;\\JustGivingApi\\Models\\Model -->
<g id="edge3" class="edge">
<title>\\JustGivingApi\\Models\\Event&#45;&gt;\\JustGivingApi\\Models\\Model</title>
<path fill="none" stroke="#000000" d="M269.9586,-689.635C231.1279,-684.832 159.6881,-675.9956 116.0173,-670.5939"/>
<polygon fill="none" stroke="#000000" points="116.4348,-667.119 106.0808,-669.3649 115.5755,-674.066 116.4348,-667.119"/>
</g>
<!-- \\JustGivingApi\\Models\\FundraisingPage -->
<g id="node4" class="node">
<title>\\JustGivingApi\\Models\\FundraisingPage</title>
<polygon fill="none" stroke="#000000" points="354.6795,-657 239.6473,-657 239.6473,-621 354.6795,-621 354.6795,-657"/>
<text text-anchor="middle" x="297.1634" y="-635.7" font-family="Courier,monospace" font-size="11.00" fill="#000000">FundraisingPage</text>
</g>
<!-- \\JustGivingApi\\Models\\FundraisingPage&#45;&gt;\\JustGivingApi\\Models\\Model -->
<g id="edge4" class="edge">
<title>\\JustGivingApi\\Models\\FundraisingPage&#45;&gt;\\JustGivingApi\\Models\\Model</title>
<path fill="none" stroke="#000000" d="M239.5256,-646.1292C200.3767,-650.9716 149.7563,-657.2329 115.8987,-661.4207"/>
<polygon fill="none" stroke="#000000" points="115.4553,-657.9488 105.9606,-662.65 116.3146,-664.8959 115.4553,-657.9488"/>
</g>
<!-- \\JustGivingApi\\Models\\Team -->
<g id="node6" class="node">
<title>\\JustGivingApi\\Models\\Team</title>
<polygon fill="none" stroke="#000000" points="324.1634,-603 270.1634,-603 270.1634,-567 324.1634,-567 324.1634,-603"/>
<text text-anchor="middle" x="297.1634" y="-581.7" font-family="Courier,monospace" font-size="11.00" fill="#000000">Team</text>
</g>
<!-- \\JustGivingApi\\Models\\Team&#45;&gt;\\JustGivingApi\\Models\\Model -->
<g id="edge5" class="edge">
<title>\\JustGivingApi\\Models\\Team&#45;&gt;\\JustGivingApi\\Models\\Model</title>
<path fill="none" stroke="#000000" d="M269.9586,-595.0949C230.964,-609.5647 159.0846,-636.2371 115.466,-652.4228"/>
<polygon fill="none" stroke="#000000" points="114.2385,-649.145 106.0808,-655.9054 116.6738,-655.7078 114.2385,-649.145"/>
</g>
<!-- \\JustGivingApi\\Services\\AccountsService -->
<g id="node7" class="node">
<title>\\JustGivingApi\\Services\\AccountsService</title>
<polygon fill="none" stroke="#000000" points="354.6795,-524 239.6473,-524 239.6473,-488 354.6795,-488 354.6795,-524"/>
<text text-anchor="middle" x="297.1634" y="-502.7" font-family="Courier,monospace" font-size="11.00" fill="#000000">AccountsService</text>
</g>
<!-- \\JustGivingApi\\Services\\Service -->
<g id="node11" class="node">
<title>\\JustGivingApi\\Services\\Service</title>
<polygon fill="none" stroke="#000000" points="110.0847,-416 47.669,-416 47.669,-380 110.0847,-380 110.0847,-416"/>
<text text-anchor="middle" x="78.8769" y="-394.7" font-family="Courier,monospace" font-size="11.00" fill="#000000">Service</text>
</g>
<!-- \\JustGivingApi\\Services\\AccountsService&#45;&gt;\\JustGivingApi\\Services\\Service -->
<g id="edge6" class="edge">
<title>\\JustGivingApi\\Services\\AccountsService&#45;&gt;\\JustGivingApi\\Services\\Service</title>
<path fill="none" stroke="#000000" d="M250.0946,-487.9308C243.2184,-485.0651 236.2649,-482.0402 229.7537,-479 191.4257,-461.1039 149.0964,-438.0799 119.0531,-421.156"/>
<polygon fill="none" stroke="#000000" points="120.5684,-417.992 110.1417,-416.1121 117.1203,-424.0839 120.5684,-417.992"/>
</g>
<!-- \\JustGivingApi\\Services\\EventsService -->
<g id="node8" class="node">
<title>\\JustGivingApi\\Services\\EventsService</title>
<polygon fill="none" stroke="#000000" points="347.9775,-470 246.3493,-470 246.3493,-434 347.9775,-434 347.9775,-470"/>
<text text-anchor="middle" x="297.1634" y="-448.7" font-family="Courier,monospace" font-size="11.00" fill="#000000">EventsService</text>
</g>
<!-- \\JustGivingApi\\Services\\EventsService&#45;&gt;\\JustGivingApi\\Services\\Service -->
<g id="edge7" class="edge">
<title>\\JustGivingApi\\Services\\EventsService&#45;&gt;\\JustGivingApi\\Services\\Service</title>
<path fill="none" stroke="#000000" d="M246.2604,-439.4076C207.9633,-429.9336 156.1367,-417.1126 120.3469,-408.2589"/>
<polygon fill="none" stroke="#000000" points="120.7934,-404.7639 110.2455,-405.76 119.1123,-411.5591 120.7934,-404.7639"/>
</g>
<!-- \\JustGivingApi\\Services\\FundraisingService -->
<g id="node9" class="node">
<title>\\JustGivingApi\\Services\\FundraisingService</title>
<polygon fill="none" stroke="#000000" points="364.4828,-416 229.8439,-416 229.8439,-380 364.4828,-380 364.4828,-416"/>
<text text-anchor="middle" x="297.1634" y="-394.7" font-family="Courier,monospace" font-size="11.00" fill="#000000">FundraisingService</text>
</g>
<!-- \\JustGivingApi\\Services\\FundraisingService&#45;&gt;\\JustGivingApi\\Services\\Service -->
<g id="edge8" class="edge">
<title>\\JustGivingApi\\Services\\FundraisingService&#45;&gt;\\JustGivingApi\\Services\\Service</title>
<path fill="none" stroke="#000000" d="M229.5911,-398C193.9732,-398 151.4109,-398 120.6151,-398"/>
<polygon fill="none" stroke="#000000" points="120.2437,-394.5001 110.2436,-398 120.2436,-401.5001 120.2437,-394.5001"/>
</g>
<!-- \\JustGivingApi\\Services\\OAuth2Service -->
<g id="node10" class="node">
<title>\\JustGivingApi\\Services\\OAuth2Service</title>
<polygon fill="none" stroke="#000000" points="347.9775,-362 246.3493,-362 246.3493,-326 347.9775,-326 347.9775,-362"/>
<text text-anchor="middle" x="297.1634" y="-340.7" font-family="Courier,monospace" font-size="11.00" fill="#000000">OAuth2Service</text>
</g>
<!-- \\JustGivingApi\\Services\\OAuth2Service&#45;&gt;\\JustGivingApi\\Services\\Service -->
<g id="edge9" class="edge">
<title>\\JustGivingApi\\Services\\OAuth2Service&#45;&gt;\\JustGivingApi\\Services\\Service</title>
<path fill="none" stroke="#000000" d="M246.2604,-356.5924C207.9633,-366.0664 156.1367,-378.8874 120.3469,-387.7411"/>
<polygon fill="none" stroke="#000000" points="119.1123,-384.4409 110.2455,-390.24 120.7934,-391.2361 119.1123,-384.4409"/>
</g>
<!-- \\JustGivingApi\\Services\\TeamService -->
<g id="node12" class="node">
<title>\\JustGivingApi\\Services\\TeamService</title>
<polygon fill="none" stroke="#000000" points="341.2761,-308 253.0507,-308 253.0507,-272 341.2761,-272 341.2761,-308"/>
<text text-anchor="middle" x="297.1634" y="-286.7" font-family="Courier,monospace" font-size="11.00" fill="#000000">TeamService</text>
</g>
<!-- \\JustGivingApi\\Services\\TeamService&#45;&gt;\\JustGivingApi\\Services\\Service -->
<g id="edge10" class="edge">
<title>\\JustGivingApi\\Services\\TeamService&#45;&gt;\\JustGivingApi\\Services\\Service</title>
<path fill="none" stroke="#000000" d="M252.9838,-306.8724C245.179,-310.0861 237.1787,-313.5331 229.7537,-317 191.4257,-334.8961 149.0964,-357.9201 119.0531,-374.844"/>
<polygon fill="none" stroke="#000000" points="117.1203,-371.9161 110.1417,-379.8879 120.5684,-378.008 117.1203,-371.9161"/>
</g>
<!-- \\JustGivingApi\\Transport\\Transport -->
<g id="node13" class="node">
<title>\\JustGivingApi\\Transport\\Transport</title>
<polygon fill="none" stroke="#000000" points="335.0742,-150 259.2526,-150 259.2526,-114 335.0742,-114 335.0742,-150"/>
<text text-anchor="middle" x="297.1634" y="-128.7" font-family="Courier,monospace" font-size="11.00" fill="#000000">Transport</text>
</g>
<!-- \\JustGivingApi\\JustGivingApi -->
<g id="node14" class="node">
<title>\\JustGivingApi\\JustGivingApi</title>
<polygon fill="none" stroke="#000000" points="347.9775,-96 246.3493,-96 246.3493,-60 347.9775,-60 347.9775,-96"/>
<text text-anchor="middle" x="297.1634" y="-74.7" font-family="Courier,monospace" font-size="11.00" fill="#000000">JustGivingApi</text>
</g>
</g>
</svg>
