<?xml version="1.0" encoding="UTF-8" standalone="no"?>
<!DOCTYPE svg PUBLIC "-//W3C//DTD SVG 1.1//EN"
 "http://www.w3.org/Graphics/SVG/1.1/DTD/svg11.dtd">
<!-- Generated by graphviz version 2.40.1 (20161225.0304)
 -->
<!-- Title: G Pages: 1 -->
<svg width="385pt" height="646pt"
 viewBox="0.00 0.00 384.77 646.00" xmlns="http://www.w3.org/2000/svg" xmlns:xlink="http://www.w3.org/1999/xlink">
<g id="graph0" class="graph" transform="scale(1 1) rotate(0) translate(4 642)">
<title>G</title>
<polygon fill="#ffffff" stroke="transparent" points="-4,4 -4,-642 380.7698,-642 380.7698,4 -4,4"/>
<g id="clust1" class="cluster">
<title>cluster_Global</title>
<path fill="none" stroke="#c0c0c0" d="M35.7731,-44C35.7731,-44 356.7698,-44 356.7698,-44 362.7698,-44 368.7698,-50 368.7698,-56 368.7698,-56 368.7698,-618 368.7698,-618 368.7698,-624 362.7698,-630 356.7698,-630 356.7698,-630 35.7731,-630 35.7731,-630 29.7731,-630 23.7731,-624 23.7731,-618 23.7731,-618 23.7731,-56 23.7731,-56 23.7731,-50 29.7731,-44 35.7731,-44"/>
<text text-anchor="middle" x="196.2715" y="-617.2" font-family="Times,serif" font-size="11.00" fill="#c0c0c0">Global</text>
</g>
<g id="clust2" class="cluster">
<title>cluster_\JustGivingApi</title>
<path fill="none" stroke="#c0c0c0" d="M43.7731,-52C43.7731,-52 348.7698,-52 348.7698,-52 354.7698,-52 360.7698,-58 360.7698,-64 360.7698,-64 360.7698,-591 360.7698,-591 360.7698,-597 354.7698,-603 348.7698,-603 348.7698,-603 43.7731,-603 43.7731,-603 37.7731,-603 31.7731,-597 31.7731,-591 31.7731,-591 31.7731,-64 31.7731,-64 31.7731,-58 37.7731,-52 43.7731,-52"/>
<text text-anchor="middle" x="196.2715" y="-590.2" font-family="Times,serif" font-size="11.00" fill="#c0c0c0">JustGivingApi</text>
</g>
<g id="clust3" class="cluster">
<title>cluster_\JustGivingApi\Exceptions</title>
<path fill="none" stroke="#c0c0c0" d="M243.6553,-318C243.6553,-318 330.8682,-318 330.8682,-318 336.8682,-318 342.8682,-324 342.8682,-330 342.8682,-330 342.8682,-377 342.8682,-377 342.8682,-383 336.8682,-389 330.8682,-389 330.8682,-389 243.6553,-389 243.6553,-389 237.6553,-389 231.6553,-383 231.6553,-377 231.6553,-377 231.6553,-330 231.6553,-330 231.6553,-324 237.6553,-318 243.6553,-318"/>
<text text-anchor="middle" x="287.2618" y="-376.2" font-family="Times,serif" font-size="11.00" fill="#c0c0c0">Exceptions</text>
</g>
<g id="clust4" class="cluster">
<title>cluster_\JustGivingApi\Services</title>
<path fill="none" stroke="#c0c0c0" d="M51.7731,-397C51.7731,-397 340.7698,-397 340.7698,-397 346.7698,-397 352.7698,-403 352.7698,-409 352.7698,-409 352.7698,-564 352.7698,-564 352.7698,-570 346.7698,-576 340.7698,-576 340.7698,-576 51.7731,-576 51.7731,-576 45.7731,-576 39.7731,-570 39.7731,-564 39.7731,-564 39.7731,-409 39.7731,-409 39.7731,-403 45.7731,-397 51.7731,-397"/>
<text text-anchor="middle" x="196.2715" y="-563.2" font-family="Times,serif" font-size="11.00" fill="#c0c0c0">Services</text>
</g>
<g id="clust5" class="cluster">
<title>cluster_\JustGivingApi\Transport</title>
<path fill="none" stroke="#c0c0c0" d="M253.5569,-239C253.5569,-239 320.9666,-239 320.9666,-239 326.9666,-239 332.9666,-245 332.9666,-251 332.9666,-251 332.9666,-298 332.9666,-298 332.9666,-304 326.9666,-310 320.9666,-310 320.9666,-310 253.5569,-310 253.5569,-310 247.5569,-310 241.5569,-304 241.5569,-298 241.5569,-298 241.5569,-251 241.5569,-251 241.5569,-245 247.5569,-239 253.5569,-239"/>
<text text-anchor="middle" x="287.2618" y="-297.2" font-family="Times,serif" font-size="11.00" fill="#c0c0c0">Transport</text>
</g>
<g id="clust6" class="cluster">
<title>cluster_\JustGivingApi\Models</title>
<path fill="none" stroke="#c0c0c0" d="M260.158,-106C260.158,-106 314.3655,-106 314.3655,-106 320.3655,-106 326.3655,-112 326.3655,-118 326.3655,-118 326.3655,-219 326.3655,-219 326.3655,-225 320.3655,-231 314.3655,-231 314.3655,-231 260.158,-231 260.158,-231 254.158,-231 248.158,-225 248.158,-219 248.158,-219 248.158,-118 248.158,-118 248.158,-112 254.158,-106 260.158,-106"/>
<text text-anchor="middle" x="287.2618" y="-218.2" font-family="Times,serif" font-size="11.00" fill="#c0c0c0">Models</text>
</g>
<!-- \\JustGivingApi\\Exceptions\\ApiException -->
<g id="node1" class="node">
<title>\\JustGivingApi\\Exceptions\\ApiException</title>
<polygon fill="none" stroke="#000000" points="334.9749,-362 239.5486,-362 239.5486,-326 334.9749,-326 334.9749,-362"/>
<text text-anchor="middle" x="287.2618" y="-340.7" font-family="Courier,monospace" font-size="11.00" fill="#000000">ApiException</text>
</g>
<!-- \\RuntimeException -->
<g id="node10" class="node">
<title>\\RuntimeException</title>
<ellipse fill="none" stroke="#000000" cx="78.8769" cy="-18" rx="78.7539" ry="18"/>
<text text-anchor="middle" x="78.8769" y="-13.8" font-family="Times,serif" font-size="14.00" fill="#c0c0c0">\RuntimeException</text>
</g>
<!-- \\JustGivingApi\\Exceptions\\ApiException&#45;&gt;\\RuntimeException -->
<g id="edge1" class="edge">
<title>\\JustGivingApi\\Exceptions\\ApiException&#45;&gt;\\RuntimeException</title>
<path fill="none" stroke="#000000" d="M244.9316,-325.8819C239.4399,-322.4357 234.1917,-318.4801 229.7537,-314 150.077,-233.5678 103.8845,-102.4638 86.6696,-45.6756"/>
<polygon fill="none" stroke="#000000" points="89.989,-44.5584 83.7908,-35.9658 83.2778,-46.5482 89.989,-44.5584"/>
</g>
<!-- \\JustGivingApi\\Services\\EventsService -->
<g id="node2" class="node">
<title>\\JustGivingApi\\Services\\EventsService</title>
<polygon fill="none" stroke="#000000" points="338.0759,-549 236.4476,-549 236.4476,-513 338.0759,-513 338.0759,-549"/>
<text text-anchor="middle" x="287.2618" y="-527.7" font-family="Courier,monospace" font-size="11.00" fill="#000000">EventsService</text>
</g>
<!-- \\JustGivingApi\\Services\\Service -->
<g id="node3" class="node">
<title>\\JustGivingApi\\Services\\Service</title>
<polygon fill="none" stroke="#000000" points="110.0847,-495 47.669,-495 47.669,-459 110.0847,-459 110.0847,-495"/>
<text text-anchor="middle" x="78.8769" y="-473.7" font-family="Courier,monospace" font-size="11.00" fill="#000000">Service</text>
</g>
<!-- \\JustGivingApi\\Services\\EventsService&#45;&gt;\\JustGivingApi\\Services\\Service -->
<g id="edge2" class="edge">
<title>\\JustGivingApi\\Services\\EventsService&#45;&gt;\\JustGivingApi\\Services\\Service</title>
<path fill="none" stroke="#000000" d="M236.2851,-517.7901C200.5779,-508.5371 153.4726,-496.3304 120.1255,-487.689"/>
<polygon fill="none" stroke="#000000" points="120.8043,-484.2494 110.246,-485.1289 119.0483,-491.0255 120.8043,-484.2494"/>
</g>
<!-- \\JustGivingApi\\Services\\AccountsService -->
<g id="node4" class="node">
<title>\\JustGivingApi\\Services\\AccountsService</title>
<polygon fill="none" stroke="#000000" points="344.7779,-495 229.7457,-495 229.7457,-459 344.7779,-459 344.7779,-495"/>
<text text-anchor="middle" x="287.2618" y="-473.7" font-family="Courier,monospace" font-size="11.00" fill="#000000">AccountsService</text>
</g>
<!-- \\JustGivingApi\\Services\\AccountsService&#45;&gt;\\JustGivingApi\\Services\\Service -->
<g id="edge3" class="edge">
<title>\\JustGivingApi\\Services\\AccountsService&#45;&gt;\\JustGivingApi\\Services\\Service</title>
<path fill="none" stroke="#000000" d="M229.4917,-477C194.8623,-477 151.6332,-477 120.3812,-477"/>
<polygon fill="none" stroke="#000000" points="120.2716,-473.5001 110.2716,-477 120.2715,-480.5001 120.2716,-473.5001"/>
</g>
<!-- \\JustGivingApi\\Services\\OAuth2Service -->
<g id="node5" class="node">
<title>\\JustGivingApi\\Services\\OAuth2Service</title>
<polygon fill="none" stroke="#000000" points="338.0759,-441 236.4476,-441 236.4476,-405 338.0759,-405 338.0759,-441"/>
<text text-anchor="middle" x="287.2618" y="-419.7" font-family="Courier,monospace" font-size="11.00" fill="#000000">OAuth2Service</text>
</g>
<!-- \\JustGivingApi\\Services\\OAuth2Service&#45;&gt;\\JustGivingApi\\Services\\Service -->
<g id="edge4" class="edge">
<title>\\JustGivingApi\\Services\\OAuth2Service&#45;&gt;\\JustGivingApi\\Services\\Service</title>
<path fill="none" stroke="#000000" d="M236.2851,-436.2099C200.5779,-445.4629 153.4726,-457.6696 120.1255,-466.311"/>
<polygon fill="none" stroke="#000000" points="119.0483,-462.9745 110.246,-468.8711 120.8043,-469.7506 119.0483,-462.9745"/>
</g>
<!-- \\JustGivingApi\\Transport\\Transport -->
<g id="node6" class="node">
<title>\\JustGivingApi\\Transport\\Transport</title>
<polygon fill="none" stroke="#000000" points="325.1726,-283 249.351,-283 249.351,-247 325.1726,-247 325.1726,-283"/>
<text text-anchor="middle" x="287.2618" y="-261.7" font-family="Courier,monospace" font-size="11.00" fill="#000000">Transport</text>
</g>
<!-- \\JustGivingApi\\Models\\Account -->
<g id="node7" class="node">
<title>\\JustGivingApi\\Models\\Account</title>
<polygon fill="none" stroke="#000000" points="318.4696,-204 256.0539,-204 256.0539,-168 318.4696,-168 318.4696,-204"/>
<text text-anchor="middle" x="287.2618" y="-182.7" font-family="Courier,monospace" font-size="11.00" fill="#000000">Account</text>
</g>
<!-- \\JustGivingApi\\Models\\Event -->
<g id="node8" class="node">
<title>\\JustGivingApi\\Models\\Event</title>
<polygon fill="none" stroke="#000000" points="314.2618,-150 260.2618,-150 260.2618,-114 314.2618,-114 314.2618,-150"/>
<text text-anchor="middle" x="287.2618" y="-128.7" font-family="Courier,monospace" font-size="11.00" fill="#000000">Event</text>
</g>
<!-- \\JustGivingApi\\JustGivingApi -->
<g id="node9" class="node">
<title>\\JustGivingApi\\JustGivingApi</title>
<polygon fill="none" stroke="#000000" points="338.0759,-96 236.4476,-96 236.4476,-60 338.0759,-60 338.0759,-96"/>
<text text-anchor="middle" x="287.2618" y="-74.7" font-family="Courier,monospace" font-size="11.00" fill="#000000">JustGivingApi</text>
</g>
</g>
</svg>
