<?xml version="1.0" encoding="UTF-8" standalone="no"?>
<!DOCTYPE svg PUBLIC "-//W3C//DTD SVG 1.1//EN"
 "http://www.w3.org/Graphics/SVG/1.1/DTD/svg11.dtd">
<!-- Generated by graphviz version 2.40.1 (20161225.0304)
 -->
<!-- Title: G Pages: 1 -->
<svg width="405pt" height="1024pt"
 viewBox="0.00 0.00 404.57 1024.00" xmlns="http://www.w3.org/2000/svg" xmlns:xlink="http://www.w3.org/1999/xlink">
<g id="graph0" class="graph" transform="scale(1 1) rotate(0) translate(4 1020)">
<title>G</title>
<polygon fill="#ffffff" stroke="transparent" points="-4,4 -4,-1020 400.5731,-1020 400.5731,4 -4,4"/>
<g id="clust1" class="cluster">
<title>cluster_Global</title>
<path fill="none" stroke="#c0c0c0" d="M35.7731,-44C35.7731,-44 376.5731,-44 376.5731,-44 382.5731,-44 388.5731,-50 388.5731,-56 388.5731,-56 388.5731,-996 388.5731,-996 388.5731,-1002 382.5731,-1008 376.5731,-1008 376.5731,-1008 35.7731,-1008 35.7731,-1008 29.7731,-1008 23.7731,-1002 23.7731,-996 23.7731,-996 23.7731,-56 23.7731,-56 23.7731,-50 29.7731,-44 35.7731,-44"/>
<text text-anchor="middle" x="206.1731" y="-995.2" font-family="Times,serif" font-size="11.00" fill="#c0c0c0">Global</text>
</g>
<g id="clust2" class="cluster">
<title>cluster_\JustGivingApi</title>
<path fill="none" stroke="#c0c0c0" d="M43.7731,-52C43.7731,-52 368.5731,-52 368.5731,-52 374.5731,-52 380.5731,-58 380.5731,-64 380.5731,-64 380.5731,-969 380.5731,-969 380.5731,-975 374.5731,-981 368.5731,-981 368.5731,-981 43.7731,-981 43.7731,-981 37.7731,-981 31.7731,-975 31.7731,-969 31.7731,-969 31.7731,-64 31.7731,-64 31.7731,-58 37.7731,-52 43.7731,-52"/>
<text text-anchor="middle" x="206.1731" y="-968.2" font-family="Times,serif" font-size="11.00" fill="#c0c0c0">JustGivingApi</text>
</g>
<g id="clust3" class="cluster">
<title>cluster_\JustGivingApi\Exceptions</title>
<path fill="none" stroke="#c0c0c0" d="M253.5569,-185C253.5569,-185 340.7698,-185 340.7698,-185 346.7698,-185 352.7698,-191 352.7698,-197 352.7698,-197 352.7698,-244 352.7698,-244 352.7698,-250 346.7698,-256 340.7698,-256 340.7698,-256 253.5569,-256 253.5569,-256 247.5569,-256 241.5569,-250 241.5569,-244 241.5569,-244 241.5569,-197 241.5569,-197 241.5569,-191 247.5569,-185 253.5569,-185"/>
<text text-anchor="middle" x="297.1634" y="-243.2" font-family="Times,serif" font-size="11.00" fill="#c0c0c0">Exceptions</text>
</g>
<g id="clust4" class="cluster">
<title>cluster_\JustGivingApi\Services</title>
<path fill="none" stroke="#c0c0c0" d="M51.7731,-505C51.7731,-505 360.5731,-505 360.5731,-505 366.5731,-505 372.5731,-511 372.5731,-517 372.5731,-517 372.5731,-942 372.5731,-942 372.5731,-948 366.5731,-954 360.5731,-954 360.5731,-954 51.7731,-954 51.7731,-954 45.7731,-954 39.7731,-948 39.7731,-942 39.7731,-942 39.7731,-517 39.7731,-517 39.7731,-511 45.7731,-505 51.7731,-505"/>
<text text-anchor="middle" x="206.1731" y="-941.2" font-family="Times,serif" font-size="11.00" fill="#c0c0c0">Services</text>
</g>
<g id="clust5" class="cluster">
<title>cluster_\JustGivingApi\Models</title>
<path fill="none" stroke="#c0c0c0" d="M55.8769,-264C55.8769,-264 350.6714,-264 350.6714,-264 356.6714,-264 362.6714,-270 362.6714,-276 362.6714,-276 362.6714,-485 362.6714,-485 362.6714,-491 356.6714,-497 350.6714,-497 350.6714,-497 55.8769,-497 55.8769,-497 49.8769,-497 43.8769,-491 43.8769,-485 43.8769,-485 43.8769,-276 43.8769,-276 43.8769,-270 49.8769,-264 55.8769,-264"/>
<text text-anchor="middle" x="203.2742" y="-484.2" font-family="Times,serif" font-size="11.00" fill="#c0c0c0">Models</text>
</g>
<g id="clust6" class="cluster">
<title>cluster_\JustGivingApi\Transport</title>
<path fill="none" stroke="#c0c0c0" d="M263.4586,-106C263.4586,-106 330.8682,-106 330.8682,-106 336.8682,-106 342.8682,-112 342.8682,-118 342.8682,-118 342.8682,-165 342.8682,-165 342.8682,-171 336.8682,-177 330.8682,-177 330.8682,-177 263.4586,-177 263.4586,-177 257.4586,-177 251.4586,-171 251.4586,-165 251.4586,-165 251.4586,-118 251.4586,-118 251.4586,-112 257.4586,-106 263.4586,-106"/>
<text text-anchor="middle" x="297.1634" y="-164.2" font-family="Times,serif" font-size="11.00" fill="#c0c0c0">Transport</text>
</g>
<!-- \\JustGivingApi\\Exceptions\\ApiException -->
<g id="node1" class="node">
<title>\\JustGivingApi\\Exceptions\\ApiException</title>
<polygon fill="none" stroke="#000000" points="344.8765,-229 249.4503,-229 249.4503,-193 344.8765,-193 344.8765,-229"/>
<text text-anchor="middle" x="297.1634" y="-207.7" font-family="Courier,monospace" font-size="11.00" fill="#000000">ApiException</text>
</g>
<!-- \\RuntimeException -->
<g id="node18" class="node">
<title>\\RuntimeException</title>
<ellipse fill="none" stroke="#000000" cx="78.8769" cy="-18" rx="78.7539" ry="18"/>
<text text-anchor="middle" x="78.8769" y="-13.8" font-family="Times,serif" font-size="14.00" fill="#c0c0c0">\RuntimeException</text>
</g>
<!-- \\JustGivingApi\\Exceptions\\ApiException&#45;&gt;\\RuntimeException -->
<g id="edge1" class="edge">
<title>\\JustGivingApi\\Exceptions\\ApiException&#45;&gt;\\RuntimeException</title>
<path fill="none" stroke="#000000" d="M249.7618,-192.8621C242.7919,-189.3649 235.8988,-185.3997 229.7537,-181 174.5476,-141.4742 123.9074,-79.2091 97.6688,-44.1838"/>
<polygon fill="none" stroke="#000000" points="100.2979,-41.8527 91.5358,-35.8964 94.6711,-46.0168 100.2979,-41.8527"/>
</g>
<!-- \\JustGivingApi\\Services\\EventsService -->
<g id="node2" class="node">
<title>\\JustGivingApi\\Services\\EventsService</title>
<polygon fill="none" stroke="#000000" points="347.9775,-927 246.3493,-927 246.3493,-891 347.9775,-891 347.9775,-927"/>
<text text-anchor="middle" x="297.1634" y="-905.7" font-family="Courier,monospace" font-size="11.00" fill="#000000">EventsService</text>
</g>
<!-- \\JustGivingApi\\Services\\Service -->
<g id="node5" class="node">
<title>\\JustGivingApi\\Services\\Service</title>
<polygon fill="none" stroke="#000000" points="110.0847,-738 47.669,-738 47.669,-702 110.0847,-702 110.0847,-738"/>
<text text-anchor="middle" x="78.8769" y="-716.7" font-family="Courier,monospace" font-size="11.00" fill="#000000">Service</text>
</g>
<!-- \\JustGivingApi\\Services\\EventsService&#45;&gt;\\JustGivingApi\\Services\\Service -->
<g id="edge2" class="edge">
<title>\\JustGivingApi\\Services\\EventsService&#45;&gt;\\JustGivingApi\\Services\\Service</title>
<path fill="none" stroke="#000000" d="M246.2111,-891.44C240.4631,-888.6378 234.8488,-885.4929 229.7537,-882 173.9371,-843.7358 123.5262,-781.4699 97.4903,-746.3212"/>
<polygon fill="none" stroke="#000000" points="100.1348,-744.0079 91.4078,-738.0005 94.4837,-748.139 100.1348,-744.0079"/>
</g>
<!-- \\JustGivingApi\\Services\\FundraisingService -->
<g id="node3" class="node">
<title>\\JustGivingApi\\Services\\FundraisingService</title>
<polygon fill="none" stroke="#000000" points="364.4828,-873 229.8439,-873 229.8439,-837 364.4828,-837 364.4828,-873"/>
<text text-anchor="middle" x="297.1634" y="-851.7" font-family="Courier,monospace" font-size="11.00" fill="#000000">FundraisingService</text>
</g>
<!-- \\JustGivingApi\\Services\\FundraisingService&#45;&gt;\\JustGivingApi\\Services\\Service -->
<g id="edge3" class="edge">
<title>\\JustGivingApi\\Services\\FundraisingService&#45;&gt;\\JustGivingApi\\Services\\Service</title>
<path fill="none" stroke="#000000" d="M247.9208,-836.889C241.6984,-834.1333 235.5033,-831.1493 229.7537,-828 185.0774,-803.5285 138.026,-768.0808 108.5805,-744.5544"/>
<polygon fill="none" stroke="#000000" points="110.7422,-741.8014 100.7589,-738.2539 106.351,-747.2528 110.7422,-741.8014"/>
</g>
<!-- \\JustGivingApi\\Services\\TeamService -->
<g id="node4" class="node">
<title>\\JustGivingApi\\Services\\TeamService</title>
<polygon fill="none" stroke="#000000" points="341.2761,-819 253.0507,-819 253.0507,-783 341.2761,-783 341.2761,-819"/>
<text text-anchor="middle" x="297.1634" y="-797.7" font-family="Courier,monospace" font-size="11.00" fill="#000000">TeamService</text>
</g>
<!-- \\JustGivingApi\\Services\\TeamService&#45;&gt;\\JustGivingApi\\Services\\Service -->
<g id="edge4" class="edge">
<title>\\JustGivingApi\\Services\\TeamService&#45;&gt;\\JustGivingApi\\Services\\Service</title>
<path fill="none" stroke="#000000" d="M252.9899,-784.6084C214.1079,-770.1804 157.9298,-749.3343 119.9912,-735.2564"/>
<polygon fill="none" stroke="#000000" points="120.8757,-731.8514 110.2827,-731.6538 118.4404,-738.4142 120.8757,-731.8514"/>
</g>
<!-- \\JustGivingApi\\Services\\AccountsService -->
<g id="node6" class="node">
<title>\\JustGivingApi\\Services\\AccountsService</title>
<polygon fill="none" stroke="#000000" points="354.6795,-765 239.6473,-765 239.6473,-729 354.6795,-729 354.6795,-765"/>
<text text-anchor="middle" x="297.1634" y="-743.7" font-family="Courier,monospace" font-size="11.00" fill="#000000">AccountsService</text>
</g>
<!-- \\JustGivingApi\\Services\\AccountsService&#45;&gt;\\JustGivingApi\\Services\\Service -->
<g id="edge5" class="edge">
<title>\\JustGivingApi\\Services\\AccountsService&#45;&gt;\\JustGivingApi\\Services\\Service</title>
<path fill="none" stroke="#000000" d="M239.5256,-739.8708C201.9793,-735.2266 153.8814,-729.2774 120.139,-725.1037"/>
<polygon fill="none" stroke="#000000" points="120.5097,-721.623 110.1556,-723.8689 119.6503,-728.5701 120.5097,-721.623"/>
</g>
<!-- \\JustGivingApi\\Services\\CurrencyService -->
<g id="node7" class="node">
<title>\\JustGivingApi\\Services\\CurrencyService</title>
<polygon fill="none" stroke="#000000" points="354.6795,-711 239.6473,-711 239.6473,-675 354.6795,-675 354.6795,-711"/>
<text text-anchor="middle" x="297.1634" y="-689.7" font-family="Courier,monospace" font-size="11.00" fill="#000000">CurrencyService</text>
</g>
<!-- \\JustGivingApi\\Services\\CurrencyService&#45;&gt;\\JustGivingApi\\Services\\Service -->
<g id="edge6" class="edge">
<title>\\JustGivingApi\\Services\\CurrencyService&#45;&gt;\\JustGivingApi\\Services\\Service</title>
<path fill="none" stroke="#000000" d="M239.5256,-700.1292C201.9793,-704.7734 153.8814,-710.7226 120.139,-714.8963"/>
<polygon fill="none" stroke="#000000" points="119.6503,-711.4299 110.1556,-716.1311 120.5097,-718.377 119.6503,-711.4299"/>
</g>
<!-- \\JustGivingApi\\Services\\CountriesService -->
<g id="node8" class="node">
<title>\\JustGivingApi\\Services\\CountriesService</title>
<polygon fill="none" stroke="#000000" points="357.7812,-657 236.5456,-657 236.5456,-621 357.7812,-621 357.7812,-657"/>
<text text-anchor="middle" x="297.1634" y="-635.7" font-family="Courier,monospace" font-size="11.00" fill="#000000">CountriesService</text>
</g>
<!-- \\JustGivingApi\\Services\\CountriesService&#45;&gt;\\JustGivingApi\\Services\\Service -->
<g id="edge7" class="edge">
<title>\\JustGivingApi\\Services\\CountriesService&#45;&gt;\\JustGivingApi\\Services\\Service</title>
<path fill="none" stroke="#000000" d="M248.4473,-657.0772C209.8563,-671.3972 156.5477,-691.1785 120.0642,-704.7165"/>
<polygon fill="none" stroke="#000000" points="118.4041,-701.5993 110.2464,-708.3597 120.8394,-708.162 118.4041,-701.5993"/>
</g>
<!-- \\JustGivingApi\\Services\\OAuth2Service -->
<g id="node9" class="node">
<title>\\JustGivingApi\\Services\\OAuth2Service</title>
<polygon fill="none" stroke="#000000" points="347.9775,-603 246.3493,-603 246.3493,-567 347.9775,-567 347.9775,-603"/>
<text text-anchor="middle" x="297.1634" y="-581.7" font-family="Courier,monospace" font-size="11.00" fill="#000000">OAuth2Service</text>
</g>
<!-- \\JustGivingApi\\Services\\OAuth2Service&#45;&gt;\\JustGivingApi\\Services\\Service -->
<g id="edge9" class="edge">
<title>\\JustGivingApi\\Services\\OAuth2Service&#45;&gt;\\JustGivingApi\\Services\\Service</title>
<path fill="none" stroke="#000000" d="M247.9208,-603.111C241.6984,-605.8667 235.5033,-608.8507 229.7537,-612 185.0774,-636.4715 138.026,-671.9192 108.5805,-695.4456"/>
<polygon fill="none" stroke="#000000" points="106.351,-692.7472 100.7589,-701.7461 110.7422,-698.1986 106.351,-692.7472"/>
</g>
<!-- \\JustGivingApi\\Services\\OneSearchService -->
<g id="node10" class="node">
<title>\\JustGivingApi\\Services\\OneSearchService</title>
<polygon fill="none" stroke="#000000" points="357.7812,-549 236.5456,-549 236.5456,-513 357.7812,-513 357.7812,-549"/>
<text text-anchor="middle" x="297.1634" y="-527.7" font-family="Courier,monospace" font-size="11.00" fill="#000000">OneSearchService</text>
</g>
<!-- \\JustGivingApi\\Services\\OneSearchService&#45;&gt;\\JustGivingApi\\Services\\Service -->
<g id="edge13" class="edge">
<title>\\JustGivingApi\\Services\\OneSearchService&#45;&gt;\\JustGivingApi\\Services\\Service</title>
<path fill="none" stroke="#000000" d="M245.157,-549.0785C239.7776,-551.7486 234.5369,-554.721 229.7537,-558 173.9371,-596.2642 123.5262,-658.5301 97.4903,-693.6788"/>
<polygon fill="none" stroke="#000000" points="94.4837,-691.861 91.4078,-701.9995 100.1348,-695.9921 94.4837,-691.861"/>
</g>
<!-- \\JustGivingApi\\Models\\Model -->
<g id="node11" class="node">
<title>\\JustGivingApi\\Models\\Model</title>
<polygon fill="none" stroke="#000000" points="105.8769,-389 51.8769,-389 51.8769,-353 105.8769,-353 105.8769,-389"/>
<text text-anchor="middle" x="78.8769" y="-367.7" font-family="Courier,monospace" font-size="11.00" fill="#000000">Model</text>
</g>
<!-- \\JustGivingApi\\Models\\Team -->
<g id="node12" class="node">
<title>\\JustGivingApi\\Models\\Team</title>
<polygon fill="none" stroke="#000000" points="324.1634,-470 270.1634,-470 270.1634,-434 324.1634,-434 324.1634,-470"/>
<text text-anchor="middle" x="297.1634" y="-448.7" font-family="Courier,monospace" font-size="11.00" fill="#000000">Team</text>
</g>
<!-- \\JustGivingApi\\Models\\Team&#45;&gt;\\JustGivingApi\\Models\\Model -->
<g id="edge8" class="edge">
<title>\\JustGivingApi\\Models\\Team&#45;&gt;\\JustGivingApi\\Models\\Model</title>
<path fill="none" stroke="#000000" d="M269.9586,-441.9051C230.964,-427.4353 159.0846,-400.7629 115.466,-384.5772"/>
<polygon fill="none" stroke="#000000" points="116.6738,-381.2922 106.0808,-381.0946 114.2385,-387.855 116.6738,-381.2922"/>
</g>
<!-- \\JustGivingApi\\Models\\Account -->
<g id="node13" class="node">
<title>\\JustGivingApi\\Models\\Account</title>
<polygon fill="none" stroke="#000000" points="328.3713,-416 265.9555,-416 265.9555,-380 328.3713,-380 328.3713,-416"/>
<text text-anchor="middle" x="297.1634" y="-394.7" font-family="Courier,monospace" font-size="11.00" fill="#000000">Account</text>
</g>
<!-- \\JustGivingApi\\Models\\Account&#45;&gt;\\JustGivingApi\\Models\\Model -->
<g id="edge10" class="edge">
<title>\\JustGivingApi\\Models\\Account&#45;&gt;\\JustGivingApi\\Models\\Model</title>
<path fill="none" stroke="#000000" d="M265.8883,-394.1316C226.3298,-389.2385 158.2947,-380.8232 116.102,-375.6044"/>
<polygon fill="none" stroke="#000000" points="116.3189,-372.1046 105.9649,-374.3505 115.4596,-379.0517 116.3189,-372.1046"/>
</g>
<!-- \\JustGivingApi\\Models\\FundraisingPage -->
<g id="node14" class="node">
<title>\\JustGivingApi\\Models\\FundraisingPage</title>
<polygon fill="none" stroke="#000000" points="354.6795,-362 239.6473,-362 239.6473,-326 354.6795,-326 354.6795,-362"/>
<text text-anchor="middle" x="297.1634" y="-340.7" font-family="Courier,monospace" font-size="11.00" fill="#000000">FundraisingPage</text>
</g>
<!-- \\JustGivingApi\\Models\\FundraisingPage&#45;&gt;\\JustGivingApi\\Models\\Model -->
<g id="edge11" class="edge">
<title>\\JustGivingApi\\Models\\FundraisingPage&#45;&gt;\\JustGivingApi\\Models\\Model</title>
<path fill="none" stroke="#000000" d="M239.5256,-351.1292C200.3767,-355.9716 149.7563,-362.2329 115.8987,-366.4207"/>
<polygon fill="none" stroke="#000000" points="115.4553,-362.9488 105.9606,-367.65 116.3146,-369.8959 115.4553,-362.9488"/>
</g>
<!-- \\JustGivingApi\\Models\\Event -->
<g id="node15" class="node">
<title>\\JustGivingApi\\Models\\Event</title>
<polygon fill="none" stroke="#000000" points="324.1634,-308 270.1634,-308 270.1634,-272 324.1634,-272 324.1634,-308"/>
<text text-anchor="middle" x="297.1634" y="-286.7" font-family="Courier,monospace" font-size="11.00" fill="#000000">Event</text>
</g>
<!-- \\JustGivingApi\\Models\\Event&#45;&gt;\\JustGivingApi\\Models\\Model -->
<g id="edge12" class="edge">
<title>\\JustGivingApi\\Models\\Event&#45;&gt;\\JustGivingApi\\Models\\Model</title>
<path fill="none" stroke="#000000" d="M269.9586,-300.0949C230.964,-314.5647 159.0846,-341.2371 115.466,-357.4228"/>
<polygon fill="none" stroke="#000000" points="114.2385,-354.145 106.0808,-360.9054 116.6738,-360.7078 114.2385,-354.145"/>
</g>
<!-- \\JustGivingApi\\Transport\\Transport -->
<g id="node16" class="node">
<title>\\JustGivingApi\\Transport\\Transport</title>
<polygon fill="none" stroke="#000000" points="335.0742,-150 259.2526,-150 259.2526,-114 335.0742,-114 335.0742,-150"/>
<text text-anchor="middle" x="297.1634" y="-128.7" font-family="Courier,monospace" font-size="11.00" fill="#000000">Transport</text>
</g>
<!-- \\JustGivingApi\\JustGivingApi -->
<g id="node17" class="node">
<title>\\JustGivingApi\\JustGivingApi</title>
<polygon fill="none" stroke="#000000" points="347.9775,-96 246.3493,-96 246.3493,-60 347.9775,-60 347.9775,-96"/>
<text text-anchor="middle" x="297.1634" y="-74.7" font-family="Courier,monospace" font-size="11.00" fill="#000000">JustGivingApi</text>
</g>
</g>
</svg>
