<?xml version="1.0" encoding="UTF-8" standalone="no"?>
<!DOCTYPE svg PUBLIC "-//W3C//DTD SVG 1.1//EN"
 "http://www.w3.org/Graphics/SVG/1.1/DTD/svg11.dtd">
<!-- Generated by graphviz version 2.40.1 (20161225.0304)
 -->
<!-- Title: G Pages: 1 -->
<svg width="385pt" height="592pt"
 viewBox="0.00 0.00 384.77 592.00" xmlns="http://www.w3.org/2000/svg" xmlns:xlink="http://www.w3.org/1999/xlink">
<g id="graph0" class="graph" transform="scale(1 1) rotate(0) translate(4 588)">
<title>G</title>
<polygon fill="#ffffff" stroke="transparent" points="-4,4 -4,-588 380.7698,-588 380.7698,4 -4,4"/>
<g id="clust1" class="cluster">
<title>cluster_Global</title>
<path fill="none" stroke="#c0c0c0" d="M35.7731,-44C35.7731,-44 356.7698,-44 356.7698,-44 362.7698,-44 368.7698,-50 368.7698,-56 368.7698,-56 368.7698,-564 368.7698,-564 368.7698,-570 362.7698,-576 356.7698,-576 356.7698,-576 35.7731,-576 35.7731,-576 29.7731,-576 23.7731,-570 23.7731,-564 23.7731,-564 23.7731,-56 23.7731,-56 23.7731,-50 29.7731,-44 35.7731,-44"/>
<text text-anchor="middle" x="196.2715" y="-563.2" font-family="Times,serif" font-size="11.00" fill="#c0c0c0">Global</text>
</g>
<g id="clust2" class="cluster">
<title>cluster_\JustGivingApi</title>
<path fill="none" stroke="#c0c0c0" d="M43.7731,-52C43.7731,-52 348.7698,-52 348.7698,-52 354.7698,-52 360.7698,-58 360.7698,-64 360.7698,-64 360.7698,-537 360.7698,-537 360.7698,-543 354.7698,-549 348.7698,-549 348.7698,-549 43.7731,-549 43.7731,-549 37.7731,-549 31.7731,-543 31.7731,-537 31.7731,-537 31.7731,-64 31.7731,-64 31.7731,-58 37.7731,-52 43.7731,-52"/>
<text text-anchor="middle" x="196.2715" y="-536.2" font-family="Times,serif" font-size="11.00" fill="#c0c0c0">JustGivingApi</text>
</g>
<g id="clust3" class="cluster">
<title>cluster_\JustGivingApi\Exceptions</title>
<path fill="none" stroke="#c0c0c0" d="M243.6553,-264C243.6553,-264 330.8682,-264 330.8682,-264 336.8682,-264 342.8682,-270 342.8682,-276 342.8682,-276 342.8682,-323 342.8682,-323 342.8682,-329 336.8682,-335 330.8682,-335 330.8682,-335 243.6553,-335 243.6553,-335 237.6553,-335 231.6553,-329 231.6553,-323 231.6553,-323 231.6553,-276 231.6553,-276 231.6553,-270 237.6553,-264 243.6553,-264"/>
<text text-anchor="middle" x="287.2618" y="-322.2" font-family="Times,serif" font-size="11.00" fill="#c0c0c0">Exceptions</text>
</g>
<g id="clust4" class="cluster">
<title>cluster_\JustGivingApi\Services</title>
<path fill="none" stroke="#c0c0c0" d="M51.7731,-343C51.7731,-343 340.7698,-343 340.7698,-343 346.7698,-343 352.7698,-349 352.7698,-355 352.7698,-355 352.7698,-510 352.7698,-510 352.7698,-516 346.7698,-522 340.7698,-522 340.7698,-522 51.7731,-522 51.7731,-522 45.7731,-522 39.7731,-516 39.7731,-510 39.7731,-510 39.7731,-355 39.7731,-355 39.7731,-349 45.7731,-343 51.7731,-343"/>
<text text-anchor="middle" x="196.2715" y="-509.2" font-family="Times,serif" font-size="11.00" fill="#c0c0c0">Services</text>
</g>
<g id="clust5" class="cluster">
<title>cluster_\JustGivingApi\Transport</title>
<path fill="none" stroke="#c0c0c0" d="M253.5569,-185C253.5569,-185 320.9666,-185 320.9666,-185 326.9666,-185 332.9666,-191 332.9666,-197 332.9666,-197 332.9666,-244 332.9666,-244 332.9666,-250 326.9666,-256 320.9666,-256 320.9666,-256 253.5569,-256 253.5569,-256 247.5569,-256 241.5569,-250 241.5569,-244 241.5569,-244 241.5569,-197 241.5569,-197 241.5569,-191 247.5569,-185 253.5569,-185"/>
<text text-anchor="middle" x="287.2618" y="-243.2" font-family="Times,serif" font-size="11.00" fill="#c0c0c0">Transport</text>
</g>
<g id="clust6" class="cluster">
<title>cluster_\JustGivingApi\Models</title>
<path fill="none" stroke="#c0c0c0" d="M264.2618,-106C264.2618,-106 310.2618,-106 310.2618,-106 316.2618,-106 322.2618,-112 322.2618,-118 322.2618,-118 322.2618,-165 322.2618,-165 322.2618,-171 316.2618,-177 310.2618,-177 310.2618,-177 264.2618,-177 264.2618,-177 258.2618,-177 252.2618,-171 252.2618,-165 252.2618,-165 252.2618,-118 252.2618,-118 252.2618,-112 258.2618,-106 264.2618,-106"/>
<text text-anchor="middle" x="287.2618" y="-164.2" font-family="Times,serif" font-size="11.00" fill="#c0c0c0">Models</text>
</g>
<!-- \\JustGivingApi\\Exceptions\\ApiException -->
<g id="node1" class="node">
<title>\\JustGivingApi\\Exceptions\\ApiException</title>
<polygon fill="none" stroke="#000000" points="334.9749,-308 239.5486,-308 239.5486,-272 334.9749,-272 334.9749,-308"/>
<text text-anchor="middle" x="287.2618" y="-286.7" font-family="Courier,monospace" font-size="11.00" fill="#000000">ApiException</text>
</g>
<!-- \\RuntimeException -->
<g id="node9" class="node">
<title>\\RuntimeException</title>
<ellipse fill="none" stroke="#000000" cx="78.8769" cy="-18" rx="78.7539" ry="18"/>
<text text-anchor="middle" x="78.8769" y="-13.8" font-family="Times,serif" font-size="14.00" fill="#c0c0c0">\RuntimeException</text>
</g>
<!-- \\JustGivingApi\\Exceptions\\ApiException&#45;&gt;\\RuntimeException -->
<g id="edge1" class="edge">
<title>\\JustGivingApi\\Exceptions\\ApiException&#45;&gt;\\RuntimeException</title>
<path fill="none" stroke="#000000" d="M245.8716,-271.8864C240.1182,-268.4049 234.5456,-264.438 229.7537,-260 160.7666,-196.1086 111.1011,-93.8281 90.0568,-45.2801"/>
<polygon fill="none" stroke="#000000" points="93.2594,-43.8675 86.1179,-36.0413 86.8202,-46.6129 93.2594,-43.8675"/>
</g>
<!-- \\JustGivingApi\\Services\\EventsService -->
<g id="node2" class="node">
<title>\\JustGivingApi\\Services\\EventsService</title>
<polygon fill="none" stroke="#000000" points="338.0759,-495 236.4476,-495 236.4476,-459 338.0759,-459 338.0759,-495"/>
<text text-anchor="middle" x="287.2618" y="-473.7" font-family="Courier,monospace" font-size="11.00" fill="#000000">EventsService</text>
</g>
<!-- \\JustGivingApi\\Services\\Service -->
<g id="node3" class="node">
<title>\\JustGivingApi\\Services\\Service</title>
<polygon fill="none" stroke="#000000" points="110.0847,-441 47.669,-441 47.669,-405 110.0847,-405 110.0847,-441"/>
<text text-anchor="middle" x="78.8769" y="-419.7" font-family="Courier,monospace" font-size="11.00" fill="#000000">Service</text>
</g>
<!-- \\JustGivingApi\\Services\\EventsService&#45;&gt;\\JustGivingApi\\Services\\Service -->
<g id="edge2" class="edge">
<title>\\JustGivingApi\\Services\\EventsService&#45;&gt;\\JustGivingApi\\Services\\Service</title>
<path fill="none" stroke="#000000" d="M236.2851,-463.7901C200.5779,-454.5371 153.4726,-442.3304 120.1255,-433.689"/>
<polygon fill="none" stroke="#000000" points="120.8043,-430.2494 110.246,-431.1289 119.0483,-437.0255 120.8043,-430.2494"/>
</g>
<!-- \\JustGivingApi\\Services\\AccountsService -->
<g id="node4" class="node">
<title>\\JustGivingApi\\Services\\AccountsService</title>
<polygon fill="none" stroke="#000000" points="344.7779,-441 229.7457,-441 229.7457,-405 344.7779,-405 344.7779,-441"/>
<text text-anchor="middle" x="287.2618" y="-419.7" font-family="Courier,monospace" font-size="11.00" fill="#000000">AccountsService</text>
</g>
<!-- \\JustGivingApi\\Services\\AccountsService&#45;&gt;\\JustGivingApi\\Services\\Service -->
<g id="edge3" class="edge">
<title>\\JustGivingApi\\Services\\AccountsService&#45;&gt;\\JustGivingApi\\Services\\Service</title>
<path fill="none" stroke="#000000" d="M229.4917,-423C194.8623,-423 151.6332,-423 120.3812,-423"/>
<polygon fill="none" stroke="#000000" points="120.2716,-419.5001 110.2716,-423 120.2715,-426.5001 120.2716,-419.5001"/>
</g>
<!-- \\JustGivingApi\\Services\\OAuth2Service -->
<g id="node5" class="node">
<title>\\JustGivingApi\\Services\\OAuth2Service</title>
<polygon fill="none" stroke="#000000" points="338.0759,-387 236.4476,-387 236.4476,-351 338.0759,-351 338.0759,-387"/>
<text text-anchor="middle" x="287.2618" y="-365.7" font-family="Courier,monospace" font-size="11.00" fill="#000000">OAuth2Service</text>
</g>
<!-- \\JustGivingApi\\Services\\OAuth2Service&#45;&gt;\\JustGivingApi\\Services\\Service -->
<g id="edge4" class="edge">
<title>\\JustGivingApi\\Services\\OAuth2Service&#45;&gt;\\JustGivingApi\\Services\\Service</title>
<path fill="none" stroke="#000000" d="M236.2851,-382.2099C200.5779,-391.4629 153.4726,-403.6696 120.1255,-412.311"/>
<polygon fill="none" stroke="#000000" points="119.0483,-408.9745 110.246,-414.8711 120.8043,-415.7506 119.0483,-408.9745"/>
</g>
<!-- \\JustGivingApi\\Transport\\Transport -->
<g id="node6" class="node">
<title>\\JustGivingApi\\Transport\\Transport</title>
<polygon fill="none" stroke="#000000" points="325.1726,-229 249.351,-229 249.351,-193 325.1726,-193 325.1726,-229"/>
<text text-anchor="middle" x="287.2618" y="-207.7" font-family="Courier,monospace" font-size="11.00" fill="#000000">Transport</text>
</g>
<!-- \\JustGivingApi\\Models\\Event -->
<g id="node7" class="node">
<title>\\JustGivingApi\\Models\\Event</title>
<polygon fill="none" stroke="#000000" points="314.2618,-150 260.2618,-150 260.2618,-114 314.2618,-114 314.2618,-150"/>
<text text-anchor="middle" x="287.2618" y="-128.7" font-family="Courier,monospace" font-size="11.00" fill="#000000">Event</text>
</g>
<!-- \\JustGivingApi\\JustGivingApi -->
<g id="node8" class="node">
<title>\\JustGivingApi\\JustGivingApi</title>
<polygon fill="none" stroke="#000000" points="338.0759,-96 236.4476,-96 236.4476,-60 338.0759,-60 338.0759,-96"/>
<text text-anchor="middle" x="287.2618" y="-74.7" font-family="Courier,monospace" font-size="11.00" fill="#000000">JustGivingApi</text>
</g>
</g>
</svg>
